<svg width="540" height="376" viewBox="0 0 540 376" fill="none" xmlns="http://www.w3.org/2000/svg">
<path d="M262.102 362.607L53.0415 248.464C46.386 245.009 40.6755 239.347 47.169 235.63L256.972 123.907C260.118 122.111 264.897 120.926 268.096 122.66L487.552 240.332C494.208 243.899 495.396 253.877 488.74 257.444L289.656 362.419C285.477 364.66 280.738 365.856 275.906 365.889C271.074 365.922 266.317 364.791 262.102 362.607Z" fill="#FFBE30"/>
<path d="M260.55 104.251C258.106 102.929 254.866 103.378 252.018 104.251C240.327 107.993 223.438 115.476 223.668 128.908C223.786 136.102 224.563 143.274 225.99 150.347C226.543 153.129 229.135 165.813 230.931 168.207C233.631 171.787 243.337 154.488 245.578 153.141C249.412 150.821 253.138 148.352 256.81 145.82C259.51 143.937 265.639 140.956 266.746 137.975C266.955 137.303 267.05 136.604 267.03 135.905C267.215 129.605 266.836 123.302 265.896 117.06C265.221 113.056 264.91 106.621 260.55 104.251Z" fill="#297600"/>
<path opacity="0.32" d="M94.6213 268.718L136.269 246.905L110.119 233.186L68.1748 254.762C77.0308 259.327 85.8193 264.079 94.6213 268.718Z" fill="url(#paint0_linear_145_517)"/>
<path opacity="0.32" d="M236.993 249.424L148.311 300.708L237.965 348.65L317.925 300.983" fill="url(#paint1_linear_145_517)"/>
<path d="M178.538 191.667L194.981 271.873L284.675 319.928L425.696 239.571L432.905 160.113" fill="#E57A61"/>
<path d="M178.538 191.667L275.252 243.974L432.905 160.113L336.11 107.619L178.538 191.667Z" fill="#FF9476"/>
<path d="M284.674 319.928L276.048 243.974L432.904 160.113L425.695 239.571L284.674 319.928Z" fill="#D16550"/>
<path d="M299.916 48.4644V87.6885L352.674 59.5394C354.586 58.5107 356.18 57.0466 357.305 55.2868C358.43 53.527 359.048 51.5303 359.1 49.4871L359.883 18.5942C359.898 17.7723 359.678 16.9613 359.245 16.2433C358.812 15.5253 358.181 14.9258 357.416 14.5055C356.652 14.0852 355.78 13.859 354.891 13.8499C354.001 13.8408 353.125 14.049 352.35 14.4535L305.586 39.3973C303.863 40.3163 302.432 41.638 301.437 43.2295C300.442 44.821 299.917 46.6264 299.916 48.4644Z" fill="#4662FF"/>
<path d="M299.916 87.6885V101.557L313.794 77.1622" fill="#4662FF"/>
<path d="M284.445 168.544C284.475 167.562 284.266 166.586 283.834 165.688C283.402 164.79 282.757 163.993 281.948 163.356C282.267 163.311 282.562 163.169 282.784 162.952C283.006 162.735 283.143 162.455 283.173 162.158C283.202 161.86 283.123 161.562 282.947 161.311C282.772 161.06 282.51 160.871 282.204 160.774C280.031 160.213 277.736 159.439 275.454 158.953C275.303 158.86 275.133 158.797 274.955 158.766C270.318 157.974 266.028 155.96 262.602 152.966C262.363 152.773 262.061 152.657 261.743 152.637C261.426 152.617 261.11 152.693 260.844 152.854C260.578 153.015 260.376 153.252 260.269 153.529C260.163 153.806 260.157 154.108 260.253 154.388C260.001 154.506 259.787 154.684 259.633 154.903C259.479 155.122 259.39 155.375 259.376 155.635C259.11 155.666 258.86 155.765 258.651 155.92C258.443 156.074 258.286 156.28 258.196 156.512C258.106 156.745 258.088 156.996 258.144 157.238C258.2 157.479 258.327 157.702 258.512 157.88C259 158.377 259.519 158.847 260.064 159.29C260.082 159.381 260.114 159.469 260.159 159.552C260.004 159.685 259.88 159.847 259.794 160.026C259.187 159.502 258.62 158.953 258.039 158.504C256.689 157.419 254.61 159.277 256.028 160.362C257.519 161.765 259.214 162.969 261.063 163.942C263.763 166.436 267.354 166.997 271.134 166.723L271.553 166.96C273.348 168.057 273.186 170.165 273.47 171.949C273.551 172.193 273.708 172.41 273.919 172.575C274.131 172.74 274.39 172.845 274.664 172.878C274.938 172.91 275.217 172.87 275.468 172.76C275.718 172.651 275.929 172.477 276.075 172.26C276.743 170.351 276.743 168.296 276.075 166.386C276.592 166.573 277.055 166.867 277.429 167.246C277.804 167.624 278.08 168.077 278.235 168.569C278.592 169.853 278.859 171.157 279.032 172.472C279.369 174.131 282.123 173.433 281.732 171.774C281.921 171.806 282.116 171.797 282.302 171.747C282.487 171.697 282.657 171.608 282.798 171.487C282.94 171.366 283.049 171.216 283.117 171.05C283.185 170.883 283.21 170.704 283.19 170.527C283.19 170.29 283.19 170.04 283.19 169.803C283.364 169.804 283.537 169.771 283.696 169.707C283.856 169.642 284 169.548 284.118 169.429C284.236 169.311 284.326 169.171 284.382 169.018C284.439 168.866 284.46 168.704 284.445 168.544Z" fill="#FFE9CA"/>
<path d="M312.282 140.507C312.984 139.372 312.039 137.813 311.364 136.765C310.014 134.96 308.38 133.35 306.517 131.989C306.273 131.805 305.972 131.699 305.657 131.687C305.343 131.675 305.032 131.757 304.772 131.921C304.513 132.085 304.317 132.323 304.216 132.598C304.114 132.873 304.112 133.171 304.209 133.448C304.051 133.383 303.881 133.349 303.709 133.348C303.549 133.074 303.322 132.839 303.045 132.661C302.768 132.483 302.45 132.368 302.116 132.325C301.009 131.44 299.511 132.737 299.97 133.872C299.643 133.912 299.343 134.06 299.127 134.29C298.91 134.52 298.793 134.815 298.795 135.119C298.849 136.111 299.199 137.069 299.808 137.888C298.908 137.056 298.008 136.225 297.108 135.394C295.974 134.371 293.962 135.843 294.934 137.065L295.42 137.676C295.578 137.876 295.793 138.032 296.041 138.125L296.784 138.798C297.603 139.921 298.476 141.006 299.403 142.054C299.273 142.143 299.164 142.255 299.083 142.385C299.002 142.515 298.951 142.659 298.933 142.807C298.916 142.956 298.931 143.107 298.98 143.25C299.028 143.392 299.108 143.524 299.214 143.638C300.82 145.546 304.614 151.457 307.813 148.626C308.623 149.691 309.393 150.784 310.122 151.906C310.243 152.116 310.427 152.289 310.651 152.405C310.875 152.521 311.13 152.576 311.387 152.563C311.643 152.55 311.89 152.47 312.099 152.331C312.308 152.193 312.47 152.002 312.565 151.782C312.765 151.672 312.921 151.506 313.013 151.309C313.106 151.112 313.128 150.894 313.078 150.684C312.913 149.732 312.623 148.802 312.214 147.915C313.659 146.943 313.483 145.421 312.673 144.174C312.9 143.573 312.983 142.934 312.915 142.301C312.848 141.667 312.632 141.055 312.282 140.507Z" fill="#FFE9CA"/>
<path d="M297.607 145.072C300.307 138.973 306.612 134.595 313.281 131.901L307.962 128.359C302.008 123.508 296.271 118.382 290.412 113.393C283.824 107.793 277.6 100.173 268.177 98.9381C263.857 98.3769 258.727 99.2624 254.502 100.073C249.644 100.837 245.158 102.962 241.65 106.159C237.897 109.901 236.425 115.139 234.9 119.878C233.218 124.944 232.043 130.142 231.39 135.406C230.944 139.148 230.472 143.675 232.092 147.292C233.11 149.49 234.382 151.581 235.885 153.528C240.562 157.911 245.862 161.688 251.64 164.752C253.179 165.584 254.749 166.378 256.351 167.134C260.091 162.47 265.801 157.93 272.052 156.097L260.01 148.614L282.15 136.566L297.607 145.072Z" fill="#4662FF"/>
<path d="M272.336 141.854L268.205 98.9507L259.16 96.4563L250.115 99.2749C258.053 102.53 261.333 138.836 263.21 146.78C263.331 146.768 272.187 141.929 272.336 141.854Z" fill="#F7FFEB"/>
<path d="M279.086 163.056C278.789 162.857 278.505 163.318 278.802 163.505C279.923 164.215 280.865 165.139 281.563 166.215C282.262 167.291 282.702 168.494 282.852 169.741C282.852 170.078 283.46 170.078 283.419 169.741C283.265 168.403 282.797 167.112 282.049 165.958C281.3 164.804 280.289 163.814 279.086 163.056Z" fill="#BC3B1D"/>
<path d="M277.519 164.54C277.209 164.366 276.925 164.815 277.236 164.989C278.437 165.667 279.43 166.618 280.12 167.751C280.81 168.884 281.174 170.162 281.178 171.462C281.178 171.532 281.208 171.598 281.261 171.647C281.314 171.697 281.386 171.724 281.462 171.724C281.537 171.724 281.609 171.697 281.662 171.647C281.715 171.598 281.745 171.532 281.745 171.462C281.741 170.071 281.35 168.704 280.61 167.492C279.87 166.28 278.806 165.264 277.519 164.54Z" fill="#BC3B1D"/>
<path d="M282.582 163.156C280.127 161.34 277.398 159.865 274.482 158.778C274.144 158.654 273.996 159.165 274.333 159.29C277.138 160.348 279.762 161.776 282.123 163.53C282.46 163.742 282.865 163.368 282.582 163.156Z" fill="#BC3B1D"/>
<path d="M312.322 148.29C312.818 147.947 313.176 147.463 313.34 146.911C313.504 146.36 313.464 145.774 313.227 145.246C313.092 144.822 312.943 144.398 312.754 143.999C312.784 143.975 312.807 143.945 312.822 143.912C313.726 142.178 312.552 140.557 311.701 139.023C311.539 138.724 311.04 139.023 311.215 139.285C311.904 140.532 312.957 141.929 312.471 143.338C311.997 142.329 311.404 141.371 310.702 140.482C310.486 140.208 309.987 140.482 310.216 140.744C311.337 142.153 314.266 146.456 312.039 147.865C312.001 147.888 311.968 147.917 311.944 147.953C311.055 145.779 310.008 143.662 308.812 141.617C308.637 141.318 308.151 141.617 308.326 141.879C309.216 143.395 310.023 144.952 310.743 146.543C311.04 147.2 311.319 147.865 311.58 148.539C311.728 148.913 311.877 149.287 312.012 149.661C312.147 150.036 312.228 150.173 312.255 150.31C312.354 150.598 312.354 150.907 312.255 151.195C312.177 151.427 312.006 151.622 311.779 151.743C311.551 151.863 311.282 151.899 311.026 151.844C310.721 151.769 310.453 151.597 310.27 151.358C310.108 151.358 310.041 151.083 309.744 150.647L309.136 149.761L307.611 147.541L304.614 143.101C304.411 142.814 303.925 143.101 304.128 143.363L309.001 150.46C309.622 151.37 310.878 153.578 312.417 152.468C313.767 151.532 312.606 149.462 312.12 148.327C312.155 148.335 312.191 148.336 312.226 148.329C312.261 148.323 312.294 148.309 312.322 148.29Z" fill="#BC3B1D"/>
<path opacity="0.47" d="M261.725 148.801C258.845 146.09 256.095 143.272 253.476 140.345V133.959C253.476 133.749 253.386 133.548 253.225 133.399C253.064 133.251 252.846 133.167 252.619 133.167C252.392 133.167 252.173 133.251 252.013 133.399C251.852 133.548 251.762 133.749 251.762 133.959V138.374L250.695 137.127C250.02 136.329 248.819 137.451 249.48 138.25C250.142 139.048 251.019 140.046 251.789 140.919C251.817 141.009 251.866 141.094 251.931 141.166C251.996 141.239 252.076 141.299 252.167 141.343C254.813 144.303 257.589 147.15 260.496 149.886C261.279 150.647 262.494 149.524 261.725 148.801Z" fill="#56403D"/>
<path opacity="0.47" d="M282.164 136.566L278.681 123.196L275.805 139.958L282.164 136.566Z" fill="#56403D"/>
<path d="M252.032 101.083C252.099 101.445 262.521 109.552 262.521 109.552L263.979 105.062L267.435 108.866L268.637 103.416L268.205 98.9756" fill="#C7D1B6"/>
<path d="M258.701 100.909C251.343 103.515 242.933 98.0278 245.957 86.2169C248.657 75.4536 263.007 76.7383 263.007 76.7383" fill="#DD966F"/>
<path d="M261.306 79.4946C254.556 79.1828 250.006 87.0775 250.303 91.3054C250.406 92.8805 250.733 94.4362 251.275 95.9325C251.429 95.9578 251.578 95.9997 251.721 96.0572C252.686 96.307 253.547 96.8199 254.191 97.5289C254.866 98.377 255.096 99.4496 255.744 100.323C256.925 101.812 258.62 102.886 260.55 103.366C261.113 103.452 261.681 103.51 262.251 103.54C271.269 104.039 271.242 85.2316 271.525 84.0094C270.247 82.6511 268.68 81.5495 266.922 80.773C265.164 79.9964 263.253 79.5613 261.306 79.4946Z" fill="#FFE9CA"/>
<path d="M260.739 89.4721L268.839 88.0129C269.227 86.6657 269.286 85.2558 269.014 83.8847L269.932 87.6886H272.929C272.929 87.6886 275.035 80.3053 265.923 77.3868C256.81 74.4684 248.076 79.083 248.4 86.5661C248.493 90.8198 250.265 94.8955 253.381 98.0278C253.381 98.0278 248.791 90.9064 250.371 93.937C252.315 97.6786 254.286 90.5322 254.205 88.3746L255.204 90.0084L260.739 89.4721Z" fill="#DD966F"/>
<path d="M255.717 94.9846C255.714 94.4143 255.582 93.8508 255.329 93.3308C255.075 92.8109 254.706 92.346 254.245 91.9664C253.422 91.3053 252.085 90.7192 251.167 91.5797C250.249 92.4403 250.627 93.7873 250.911 94.7351C251.294 96.0146 251.981 97.1991 252.922 98.2023C253.867 99.2375 255.474 97.7409 254.529 96.7182C254.254 96.4023 254.01 96.0642 253.8 95.7079C253.956 95.8535 254.155 95.9531 254.372 95.9941C254.589 96.0351 254.815 96.0156 255.02 95.9382C255.225 95.8607 255.401 95.7288 255.525 95.559C255.649 95.3893 255.716 95.1894 255.717 94.9846ZM253.017 93.887C253.277 94.2033 253.424 94.5872 253.435 94.9846C253.435 94.9846 253.435 95.0594 253.435 95.0968C253.252 94.7078 253.111 94.3024 253.017 93.887Z" fill="#FFE9CA"/>
<path d="M259.146 96.7181C261.003 96.7181 262.508 95.1547 262.508 93.226C262.508 91.2974 261.003 89.7339 259.146 89.7339C257.29 89.7339 255.785 91.2974 255.785 93.226C255.785 95.1547 257.29 96.7181 259.146 96.7181Z" stroke="#603813" stroke-width="0.25375" stroke-miterlimit="10"/>
<path d="M267.8 94.7227C269.44 94.7227 270.77 93.1592 270.77 91.2305C270.77 89.3019 269.44 87.7384 267.8 87.7384C266.159 87.7384 264.83 89.3019 264.83 91.2305C264.83 93.1592 266.159 94.7227 267.8 94.7227Z" stroke="#603813" stroke-width="0.25375" stroke-miterlimit="10"/>
<path d="M263.939 91.9664C263.92 91.8711 263.867 91.7848 263.786 91.7225C263.706 91.6603 263.605 91.6262 263.5 91.6262C263.395 91.6262 263.294 91.6603 263.214 91.7225C263.133 91.7848 263.079 91.8711 263.061 91.9664C263.067 92.6514 263.2 93.3304 263.453 93.9744C263.773 94.6294 263.996 95.3217 264.114 96.0323C263.677 96.2188 263.225 96.3772 262.764 96.5062C262.238 96.6933 262.467 97.479 262.994 97.2919C263.763 97.0175 265.005 96.9053 264.951 95.9574C264.924 94.4608 263.925 93.3383 263.939 91.9664Z" fill="#D66145"/>
<path d="M262.507 93.5004L265.221 92.9517" stroke="#603813" stroke-width="0.25375" stroke-miterlimit="10"/>
<path d="M253.422 91.5175L255.879 92.9517" stroke="#603813" stroke-width="0.25375" stroke-miterlimit="10"/>
<path d="M263.453 98.7262C263.233 98.89 262.979 99.0099 262.706 99.0783C262.434 99.1466 262.149 99.162 261.87 99.1233C261.591 99.0846 261.323 98.9927 261.084 98.8535C260.846 98.7143 260.641 98.5308 260.483 98.3146C260.226 98.0527 259.794 98.4393 260.051 98.7137C260.271 98.9745 260.545 99.1923 260.857 99.3545C261.168 99.5166 261.512 99.6198 261.868 99.6581C262.223 99.6964 262.583 99.669 262.927 99.5776C263.271 99.4861 263.592 99.3324 263.871 99.1253C264.155 98.8759 263.723 98.4768 263.453 98.7262Z" fill="#D66145"/>
<path d="M243.094 94.3984C246.054 94.3984 248.454 92.1816 248.454 89.4471C248.454 86.7125 246.054 84.4957 243.094 84.4957C240.134 84.4957 237.735 86.7125 237.735 89.4471C237.735 92.1816 240.134 94.3984 243.094 94.3984Z" fill="#DD966F"/>
<path d="M266.935 78.1725C266.935 78.1725 265.005 76.3017 256.635 80.0558C249.169 83.3983 251.545 91.5175 251.545 91.5175L249.088 92.9517C249.088 92.9517 245.268 85.4686 249.912 80.1057C255.784 73.3334 261.967 75.728 261.967 75.728C261.967 75.728 265.599 76.5262 266.935 78.1725Z" fill="#3F281C"/>
<path d="M263.25 100.372C263.09 100.383 262.938 100.439 262.815 100.533C262.692 100.627 262.603 100.754 262.561 100.896L262.48 100.984C260.984 101.407 259.388 101.428 257.879 101.044C256.371 100.659 255.012 99.8856 253.962 98.8135C254.955 98.1587 255.644 97.1821 255.891 96.0786C256.139 94.9752 255.927 93.826 255.298 92.8604C254.669 91.8949 253.669 91.184 252.498 90.8697C251.326 90.5554 250.069 90.6607 248.978 91.1647C247.887 91.6687 247.042 92.5343 246.611 93.5886C246.181 94.643 246.196 95.8087 246.655 96.8529C247.114 97.8972 247.982 98.7433 249.086 99.2223C250.19 99.7013 251.449 99.778 252.612 99.4371C252.634 99.4812 252.661 99.523 252.693 99.5618C253.963 100.929 255.648 101.914 257.529 102.39C259.41 102.865 261.403 102.81 263.25 102.231C263.366 102.31 263.5 102.365 263.642 102.391C263.784 102.417 263.931 102.414 264.071 102.381C264.212 102.349 264.343 102.289 264.455 102.205C264.567 102.12 264.658 102.014 264.721 101.894C265.315 100.971 264.181 100.298 263.25 100.372Z" fill="#3F281C"/>
<path opacity="0.32" d="M386.653 152.143C386.627 152.106 386.612 152.063 386.612 152.019C386.612 151.974 386.627 151.931 386.653 151.894C386.653 151.807 385.303 151.545 385.371 151.47C385.438 151.395 384.547 151.22 384.615 151.008C382.865 150.401 381.296 149.418 380.038 148.14L362.65 158.454L386.505 171.076L403.204 162.233C403.231 162.083 389.475 155.024 386.653 152.143Z" fill="url(#paint2_linear_145_517)"/>
<path d="M398.695 141.517L392.094 138.699C390.042 137.813 387.531 136.603 387.68 134.171C387.68 133.909 387.261 133.909 387.248 134.171C387.126 136.192 388.773 137.589 390.555 138.462C393.12 139.709 395.847 140.744 398.48 141.866C398.723 141.966 398.952 141.617 398.695 141.517Z" fill="#DA4131"/>
<path d="M399.343 137.027V141.081C399.343 141.134 399.366 141.184 399.407 141.222C399.447 141.259 399.502 141.28 399.559 141.28C399.617 141.28 399.671 141.259 399.712 141.222C399.752 141.184 399.775 141.134 399.775 141.081V137.027C399.775 136.975 399.752 136.924 399.712 136.886C399.671 136.849 399.617 136.828 399.559 136.828C399.502 136.828 399.447 136.849 399.407 136.886C399.366 136.924 399.343 136.975 399.343 137.027Z" fill="#DA4131"/>
<path d="M396.481 145.758C395.097 143.938 393.027 142.662 390.677 142.178C388.166 141.442 385.384 140.931 382.941 142.116C382.906 142.131 382.876 142.156 382.857 142.187C382.838 142.219 382.829 142.255 382.833 142.291C382.154 142.542 381.499 142.847 380.875 143.201C379.039 144.236 376.826 145.695 375.867 147.529C374.909 149.362 375.745 151.944 376.474 153.84C377.117 155.809 378.526 157.488 380.43 158.554C382.486 159.535 384.833 159.867 387.112 159.502C389.637 159.195 392.048 158.34 394.146 157.007C397.561 154.75 398.587 149.138 396.481 145.758ZM394.78 156.035C393.137 157.376 391.147 158.304 389.002 158.729C386.877 159.335 384.612 159.391 382.455 158.891C381.425 158.628 380.465 158.172 379.634 157.552C378.802 156.932 378.118 156.161 377.622 155.286C376.584 153.496 375.989 151.515 375.88 149.487C375.88 146.992 378.162 145.409 380.16 144.124C381.149 143.362 382.302 142.802 383.542 142.482C384.782 142.162 386.082 142.088 387.355 142.266C387.399 142.269 387.443 142.26 387.482 142.241C387.52 142.222 387.552 142.193 387.573 142.157C387.595 142.122 387.605 142.081 387.602 142.041C387.599 142 387.584 141.962 387.558 141.929C388.283 142.026 389 142.167 389.705 142.353C391.701 142.756 393.557 143.614 395.104 144.847C395.824 145.574 396.368 146.433 396.701 147.368C397.034 148.304 397.148 149.294 397.035 150.273C397.045 152.381 396.241 154.424 394.767 156.035H394.78Z" fill="#DA4131"/>
<path d="M389.637 150.647C389.48 149.829 389.058 149.075 388.426 148.485C387.794 147.895 386.983 147.496 386.1 147.342C386.627 147.105 387.167 146.893 387.68 146.706C387.936 146.606 387.828 146.219 387.558 146.319C386.797 146.592 386.058 146.913 385.344 147.279C385.304 147.277 385.264 147.286 385.23 147.307C385.196 147.327 385.169 147.357 385.155 147.392C384.492 147.696 383.92 148.147 383.489 148.703C383.058 149.26 382.782 149.906 382.685 150.584C382.702 151.524 383.118 152.42 383.842 153.08C384.566 153.739 385.542 154.111 386.559 154.114C387.029 154.129 387.496 154.045 387.924 153.866C388.352 153.687 388.73 153.42 389.028 153.084C389.325 152.749 389.535 152.354 389.641 151.931C389.747 151.509 389.745 151.069 389.637 150.647ZM386.06 153.64C385.603 153.583 385.165 153.438 384.774 153.212C384.383 152.987 384.049 152.688 383.793 152.333C383.538 151.979 383.367 151.579 383.292 151.159C383.217 150.739 383.24 150.309 383.36 149.898C383.763 148.947 384.525 148.163 385.506 147.691C386.323 147.72 387.11 147.981 387.76 148.438C388.41 148.896 388.891 149.528 389.138 150.248C389.324 150.666 389.383 151.123 389.31 151.57C389.236 152.017 389.033 152.437 388.721 152.786C388.409 153.134 388 153.398 387.539 153.548C387.077 153.699 386.58 153.73 386.1 153.64H386.06Z" fill="#DA4131"/>
<path d="M388.112 150.073C387.761 149.237 386.559 149.424 386.006 148.826C385.817 148.626 385.52 148.913 385.695 149.113C385.99 149.391 386.365 149.586 386.775 149.674C387.031 149.732 387.274 149.834 387.491 149.973C387.464 149.959 387.434 149.95 387.403 149.949C387.372 149.948 387.341 149.953 387.313 149.966C387.285 149.978 387.26 149.996 387.242 150.02C387.224 150.043 387.212 150.07 387.207 150.098L387.059 150.784C387.046 150.826 387.048 150.87 387.065 150.911C387.082 150.951 387.113 150.986 387.153 151.008C387.774 151.258 388.341 150.584 388.112 150.073ZM387.531 150.672L387.639 150.21C387.648 150.177 387.648 150.143 387.639 150.11C387.682 150.166 387.71 150.23 387.72 150.297C387.734 150.385 387.68 150.584 387.531 150.672Z" fill="#DA4131"/>
<path d="M367.767 155.486L391.919 168.257L410.103 158.554V141.879L390.474 131.477L381.551 135.905L367.767 155.486Z" fill="#4662FF"/>
<path d="M410.103 141.879L401.395 146.518L391.918 168.257L410.103 158.554V141.879Z" fill="#4662FF"/>
<path opacity="0.22" d="M367.767 155.486L391.919 168.257L410.103 158.554V141.879L390.474 131.477L381.551 135.905L367.767 155.486Z" fill="#272322"/>
<path opacity="0.55" d="M410.103 141.879L401.395 146.518L391.918 168.257L410.103 158.554V141.879Z" fill="#272322"/>
<path d="M401.396 146.518L381.551 135.905L367.767 155.486L391.919 168.257L401.396 146.518Z" fill="#4662FF"/>
<path d="M386.059 158.94C390.6 158.94 394.281 155.629 394.281 151.545C394.281 147.46 390.6 144.149 386.059 144.149C381.519 144.149 377.838 147.46 377.838 151.545C377.838 155.629 381.519 158.94 386.059 158.94Z" fill="#FDBF30"/>
<path d="M381.068 149.03C381.457 148.604 381.44 147.999 381.03 147.679C380.619 147.359 379.971 147.446 379.582 147.872C379.193 148.299 379.21 148.904 379.62 149.223C380.03 149.543 380.679 149.457 381.068 149.03Z" fill="#444A93"/>
<path d="M380.935 148.783C381.237 148.3 381.105 147.707 380.64 147.459C380.175 147.211 379.553 147.402 379.251 147.885C378.949 148.368 379.081 148.961 379.546 149.209C380.011 149.457 380.633 149.266 380.935 148.783Z" fill="#686EBC"/>
<path d="M385.436 146.741C385.826 146.314 385.808 145.709 385.398 145.39C384.988 145.07 384.339 145.157 383.95 145.583C383.561 146.01 383.578 146.615 383.988 146.934C384.399 147.254 385.047 147.167 385.436 146.741Z" fill="#444A93"/>
<path d="M385.304 146.468C385.606 145.985 385.474 145.392 385.009 145.144C384.545 144.896 383.923 145.087 383.621 145.57C383.319 146.053 383.451 146.646 383.916 146.894C384.381 147.142 385.003 146.951 385.304 146.468Z" fill="#686EBC"/>
<path d="M389.784 147.191C390.174 146.764 390.157 146.159 389.746 145.839C389.336 145.52 388.688 145.606 388.298 146.033C387.909 146.459 387.926 147.064 388.336 147.384C388.747 147.704 389.395 147.617 389.784 147.191Z" fill="#444A93"/>
<path d="M389.654 146.931C389.956 146.448 389.824 145.855 389.359 145.607C388.894 145.359 388.272 145.55 387.97 146.033C387.668 146.517 387.8 147.109 388.265 147.357C388.73 147.605 389.352 147.414 389.654 146.931Z" fill="#686EBC"/>
<path d="M392.716 151.189C393.106 150.763 393.089 150.158 392.678 149.838C392.268 149.519 391.62 149.605 391.23 150.032C390.841 150.458 390.858 151.063 391.268 151.383C391.679 151.703 392.327 151.616 392.716 151.189Z" fill="#444A93"/>
<path d="M392.598 150.925C392.9 150.442 392.768 149.849 392.303 149.601C391.839 149.353 391.217 149.544 390.915 150.027C390.613 150.51 390.745 151.103 391.21 151.351C391.675 151.599 392.297 151.408 392.598 150.925Z" fill="#686EBC"/>
<path d="M391.355 155.728C391.744 155.301 391.727 154.696 391.317 154.376C390.907 154.057 390.258 154.143 389.869 154.57C389.48 154.996 389.497 155.601 389.907 155.921C390.318 156.241 390.966 156.154 391.355 155.728Z" fill="#444A93"/>
<path d="M391.231 155.458C391.533 154.975 391.401 154.382 390.936 154.134C390.471 153.886 389.85 154.077 389.548 154.56C389.246 155.043 389.378 155.636 389.843 155.884C390.308 156.132 390.929 155.941 391.231 155.458Z" fill="#686EBC"/>
<path d="M380.941 153.678C381.33 153.252 381.313 152.647 380.903 152.327C380.493 152.007 379.844 152.094 379.455 152.52C379.066 152.947 379.083 153.552 379.493 153.872C379.903 154.191 380.552 154.105 380.941 153.678Z" fill="#444A93"/>
<path d="M380.809 153.42C381.111 152.937 380.979 152.344 380.514 152.096C380.049 151.848 379.427 152.039 379.125 152.522C378.823 153.005 378.955 153.598 379.42 153.846C379.885 154.094 380.507 153.903 380.809 153.42Z" fill="#686EBC"/>
<path d="M385.731 156.774C386.12 156.348 386.103 155.743 385.692 155.423C385.282 155.103 384.634 155.19 384.245 155.617C383.855 156.043 383.872 156.648 384.283 156.968C384.693 157.288 385.341 157.201 385.731 156.774Z" fill="#444A93"/>
<path d="M385.605 156.507C385.907 156.024 385.775 155.431 385.31 155.183C384.845 154.936 384.224 155.126 383.922 155.609C383.62 156.093 383.752 156.685 384.217 156.933C384.682 157.181 385.303 156.991 385.605 156.507Z" fill="#686EBC"/>
<path d="M386.06 154.289C388.028 154.289 389.624 152.848 389.624 151.071C389.624 149.294 388.028 147.853 386.06 147.853C384.091 147.853 382.496 149.294 382.496 151.071C382.496 152.848 384.091 154.289 386.06 154.289Z" stroke="#662D91" stroke-width="1.015" stroke-miterlimit="10"/>
<path d="M376.65 129.582C376.65 129.582 381.577 123.77 388.557 126.514C395.536 129.257 405.931 133.922 408.807 136.591C411.682 139.26 412.195 145.234 412.155 146.568C412.155 146.568 404.527 142.241 403.636 140.058C402.635 137.914 400.949 136.104 398.803 134.87C397.251 134.096 385.681 129.22 384.534 129.607C383.386 129.993 376.65 129.582 376.65 129.582Z" fill="#4662FF"/>
<path d="M402.3 149.786L402.57 149.636C402.619 149.598 402.652 149.546 402.663 149.488C402.673 149.43 402.662 149.37 402.629 149.319C402.597 149.268 402.546 149.229 402.486 149.21C402.425 149.19 402.36 149.191 402.3 149.212L402.03 149.362C401.981 149.4 401.948 149.453 401.938 149.511C401.927 149.569 401.939 149.629 401.971 149.68C402.003 149.73 402.054 149.769 402.114 149.788C402.175 149.808 402.24 149.807 402.3 149.786Z" fill="#4662FF"/>
<path d="M372.006 138.262C371.664 137.954 371.438 137.553 371.36 137.118C371.283 136.683 371.358 136.236 371.574 135.843C372.168 134.782 372.816 133.76 373.518 132.762C376.042 129.195 380.47 126.638 385.263 127.287C389.839 127.91 394.24 129.906 398.317 131.852C415.867 140.22 411.925 149.749 411.48 150.559C411.034 151.37 411.399 154.538 406.201 153.565C401.004 152.592 400.194 148.701 400.653 147.716C401.112 146.731 403.92 142.976 401.854 141.043C399.789 139.11 387.085 133.298 385.654 133.835C384.223 134.371 382.576 138.499 382.576 139.06C382.576 139.622 377.244 143.101 372.006 138.262Z" fill="#4662FF"/>
<path d="M382.374 139.135C382.385 138.652 382.234 138.177 381.942 137.776C380.376 135.531 377.082 134.595 374.314 134.521C372.883 134.521 371.614 134.882 371.466 136.316C371.088 139.197 373.815 140.856 376.555 141.305C377.699 141.509 378.878 141.462 379.998 141.168C380.484 141.089 380.945 140.907 381.343 140.636C381.741 140.366 382.066 140.014 382.293 139.609C382.345 139.456 382.372 139.296 382.374 139.135Z" fill="#4662FF"/>
<path d="M411.278 151.445C411.289 150.961 411.138 150.487 410.846 150.085C409.28 147.841 405.986 146.905 403.218 146.83C401.787 146.83 400.518 147.192 400.37 148.626C399.992 151.507 402.719 153.166 405.459 153.615C406.602 153.819 407.782 153.772 408.902 153.478C409.388 153.398 409.848 153.217 410.246 152.946C410.644 152.676 410.97 152.324 411.197 151.919C411.249 151.765 411.276 151.606 411.278 151.445Z" fill="#4662FF"/>
<path opacity="0.5" d="M382.374 139.135C382.385 138.652 382.234 138.177 381.942 137.776C380.376 135.531 377.082 134.595 374.314 134.521C372.883 134.521 371.614 134.882 371.466 136.316C371.088 139.197 373.815 140.856 376.555 141.305C377.699 141.509 378.878 141.462 379.998 141.168C380.484 141.089 380.945 140.907 381.343 140.636C381.741 140.366 382.066 140.014 382.293 139.609C382.345 139.456 382.372 139.296 382.374 139.135Z" fill="#4662FF"/>
<path opacity="0.5" d="M411.278 151.445C411.289 150.961 411.138 150.487 410.846 150.085C409.28 147.841 405.986 146.905 403.218 146.83C401.787 146.83 400.518 147.192 400.37 148.626C399.992 151.507 402.719 153.166 405.459 153.615C406.602 153.819 407.782 153.772 408.902 153.478C409.388 153.398 409.848 153.217 410.246 152.946C410.644 152.676 410.97 152.324 411.197 151.919C411.249 151.765 411.276 151.606 411.278 151.445Z" fill="#4662FF"/>
<path d="M268.65 231.614L296.933 216.062L263.696 197.928L234.617 213.493L268.65 231.614Z" fill="#56403D"/>
<path d="M281.016 230.442L309.298 214.877L276.061 196.755L246.982 212.32L281.016 230.442Z" fill="#4662FF"/>
<path d="M229.918 202.118L235.588 205.573L266.382 189.172L260.482 185.817L229.918 202.118Z" fill="#56403D"/>
<path d="M286.2 132.413L347.45 99.7488C347.94 99.4693 348.502 99.3166 349.078 99.3068C349.654 99.297 350.222 99.4304 350.723 99.693C351.224 99.9557 351.64 100.338 351.926 100.8C352.212 101.262 352.359 101.786 352.35 102.318V145.521C352.35 146.355 352.11 147.175 351.655 147.896C351.199 148.617 350.545 149.213 349.758 149.624L289.427 181.14C288.846 181.468 288.181 181.647 287.501 181.659C286.82 181.671 286.149 181.515 285.555 181.208C284.961 180.9 284.467 180.453 284.122 179.91C283.778 179.368 283.596 178.751 283.595 178.122V136.691C283.593 135.831 283.832 134.985 284.289 134.235C284.745 133.486 285.404 132.858 286.2 132.413Z" fill="#56403D"/>
<path d="M316.535 159.639V178.122L330.413 171.238V153.079" fill="#56403D"/>
<path d="M322.745 179.934C334.427 174.642 342.792 168.272 341.43 165.705C340.068 163.138 329.494 165.347 317.812 170.639C306.13 175.931 297.764 182.301 299.127 184.868C300.489 187.434 311.063 185.225 322.745 179.934Z" fill="#56403D"/>
<path d="M314.834 49.063C317.169 47.8158 318.533 49.063 318.519 52.0189C318.466 53.5821 318.095 55.1221 317.426 56.5586L314.348 63.493L318.722 61.2231V64.0168L310.811 68.1201V66.8729L315.306 56.7956C315.874 55.6787 316.208 54.4727 316.292 53.2411C316.292 51.8692 315.779 51.2955 314.78 51.8193C314.265 52.1728 313.848 52.6341 313.564 53.1653C313.28 53.6966 313.137 54.2825 313.146 54.8749L311.081 55.4112C311.161 54.0996 311.557 52.8212 312.242 51.6697C312.819 50.5905 313.719 49.6862 314.834 49.063Z" fill="#007F68"/>
<path d="M327.874 53.3783L329.224 52.6549V55.4486L327.874 56.172V59.3025L325.633 60.4623V57.3319L320.233 60.1131V58.5666L325.633 43.6752L327.982 42.428L327.874 53.3783ZM325.633 54.5382V48.1152L322.933 55.8976L325.633 54.5257" fill="#007F68"/>
<path d="M340.835 34.5833L332.937 57.8558L330.804 58.9658L338.702 35.6932L340.835 34.5833Z" fill="#007F68"/>
<path d="M350.055 31.0038L350.041 32.251L345.235 50.2853L343.021 51.4203L347.382 35.1694L342.508 37.7012L342.522 34.9075L350.055 31.0038Z" fill="#007F68"/>
<path d="M104.962 223.121V242.315H138.564V223.121" fill="#F8997C"/>
<path d="M121.77 230.754C131.052 230.754 138.577 227.336 138.577 223.121C138.577 218.905 131.052 215.488 121.77 215.488C112.487 215.488 104.962 218.905 104.962 223.121C104.962 227.336 112.487 230.754 121.77 230.754Z" fill="#DD654A"/>
<path d="M121.77 250.696C131.052 250.696 138.577 247.279 138.577 243.063C138.577 238.848 131.052 235.431 121.77 235.431C112.487 235.431 104.962 238.848 104.962 243.063C104.962 247.279 112.487 250.696 121.77 250.696Z" fill="#F8997C"/>
<path d="M140.576 178.496C137.025 177.162 132.111 172.697 127.818 172.834C126.4 176.642 125.524 180.604 125.213 184.62C124.397 191.148 124.234 197.732 124.727 204.288C124.826 205.743 124.956 207.198 125.118 208.653C125.159 209.087 125.287 209.51 125.496 209.901C125.496 214.964 125.496 220.028 125.496 225.091C125.516 225.205 125.579 225.309 125.675 225.384C125.77 225.459 125.891 225.5 126.016 225.5C126.141 225.5 126.262 225.459 126.357 225.384C126.452 225.309 126.516 225.205 126.536 225.091C126.536 220.219 126.536 215.347 126.536 210.474C128.222 209.96 129.839 209.27 131.355 208.416C134.507 206.583 136.888 203.811 138.105 200.559C140.805 193.587 139.104 185.792 141.683 178.883C141.332 178.758 140.954 178.634 140.576 178.496Z" fill="#297600"/>
<path d="M133.312 167.06C131.304 168.153 129.646 169.72 128.506 171.599C128.207 172.024 127.953 172.475 127.75 172.946L127.602 173.246C127.278 174.032 127.008 174.836 126.792 175.653C127.208 175.056 127.839 174.614 128.574 174.406C129.457 174.047 130.443 173.964 131.382 174.169C132.289 174.485 133.151 174.904 133.947 175.416C135.148 176.089 136.296 176.838 137.484 177.536C143.059 180.804 150.471 181.14 154.764 176.376C154.764 176.189 154.872 176.002 154.912 175.803C155.574 172.51 145.624 160.45 133.312 167.06Z" fill="#5FAD00"/>
<path d="M152.32 178.359L153.009 177.935C153.02 177.867 153.013 177.798 152.99 177.733C152.966 177.668 152.927 177.609 152.874 177.561C149.512 174.368 145.894 171.238 141.291 169.666C137.995 168.512 134.426 168.189 130.95 168.731C130.572 169.13 130.234 169.554 129.897 169.978C133.858 169.02 138.054 169.341 141.79 170.889C145.84 172.497 149.094 175.366 152.131 178.247C152.184 178.297 152.249 178.336 152.32 178.359Z" fill="#297600"/>
<path d="M95.8502 185.306C93.4162 186.479 91.4079 188.286 90.0738 190.503C88.7398 192.719 88.1384 195.249 88.3442 197.778C88.7357 206.945 105.084 197.99 109.418 190.295C113.751 182.6 114.44 193.587 114.44 193.587" fill="#297600"/>
<path d="M110.606 182.113C107.535 182.063 104.474 182.454 101.534 183.273C99.5462 183.704 97.6334 184.388 95.8501 185.306C96.8771 185.944 97.9717 186.483 99.1171 186.915C101.25 187.5 103.109 188.73 104.396 190.407C104.661 190.846 104.873 191.31 105.03 191.791C106.029 194.81 105.165 198.464 106.502 201.495C107.838 204.525 110.552 207.207 114.44 207.419C119.043 207.681 121.19 203.59 122.067 200.06C122.945 196.531 124.227 191.704 122.769 188.062C121.122 183.834 114.966 182.3 110.606 182.113Z" fill="#5FAD00"/>
<path d="M116.667 196.406C114.736 190.619 110.632 185.181 104.638 182.6H104.409L104.125 182.687L103.045 182.949C110.025 185.343 114.412 191.679 116.208 198.202C118.503 206.521 117.72 215.513 117.747 224.019C117.766 224.123 117.825 224.219 117.912 224.287C118 224.356 118.111 224.393 118.226 224.393C118.341 224.393 118.452 224.356 118.54 224.287C118.628 224.219 118.686 224.123 118.705 224.019C118.692 214.952 119.61 205.211 116.667 196.406Z" fill="#297600"/>
<defs>
<linearGradient id="paint0_linear_145_517" x1="90.4093" y1="261.41" x2="106.474" y2="244.546" gradientUnits="userSpaceOnUse">
<stop stop-color="#FFFF00" stop-opacity="0"/>
<stop offset="1" stop-color="#F15A24"/>
</linearGradient>
<linearGradient id="paint1_linear_145_517" x1="24740.6" y1="27704.4" x2="26507" y2="23757.3" gradientUnits="userSpaceOnUse">
<stop stop-color="#FFFF00" stop-opacity="0"/>
<stop offset="1" stop-color="#F15A24"/>
</linearGradient>
<linearGradient id="paint2_linear_145_517" x1="373.707" y1="169.517" x2="381.939" y2="159.923" gradientUnits="userSpaceOnUse">
<stop stop-color="white" stop-opacity="0"/>
<stop offset="1" stop-color="#7F2E00"/>
</linearGradient>
</defs>
</svg>
