<svg width="431" height="414" viewBox="0 0 431 414" fill="none" xmlns="http://www.w3.org/2000/svg">
<g clip-path="url(#clip0_145_608)">
<path d="M399.053 383.693L410.663 379.617C412.11 372.721 412.014 365.539 410.383 358.693C405.719 370.171 392.035 372.983 384.238 382.144C381.826 385.022 380.03 388.463 378.983 392.214C377.936 395.964 377.665 399.927 378.191 403.809L375.748 412.979C381.453 412.44 386.984 410.538 391.961 407.405C396.938 404.272 401.242 399.982 404.576 394.831C406.421 391.921 407.927 388.765 409.06 385.438C404.108 384.889 399.053 383.693 399.053 383.693Z" fill="#F2F2F2"/>
<path d="M386.647 366.736L395.396 357.358C393.912 350.471 390.932 344.09 386.714 338.768C387.164 351.343 376.049 360.614 372.762 372.662C371.763 376.428 371.543 380.395 372.117 384.268C372.692 388.142 374.046 391.823 376.081 395.038L377.59 404.451C382.479 401.152 386.663 396.72 389.855 391.46C393.047 386.199 395.17 380.235 396.079 373.979C396.557 370.463 396.634 366.895 396.307 363.359C391.654 365.312 386.647 366.736 386.647 366.736Z" fill="#F2F2F2"/>
<path d="M328.489 27.4883H1.273C0.93266 27.4803 0.608697 27.3251 0.370547 27.0559C0.132398 26.7867 -0.000976562 26.425 -0.000976562 26.0482C-0.000976562 25.6715 0.132398 25.3098 0.370547 25.0406C0.608697 24.7714 0.93266 24.6161 1.273 24.6082H328.489C328.829 24.6161 329.153 24.7714 329.391 25.0406C329.63 25.3098 329.763 25.6715 329.763 26.0482C329.763 26.425 329.63 26.7867 329.391 27.0559C329.153 27.3251 328.829 27.4803 328.489 27.4883Z" fill="#3F3D56"/>
<path d="M23.5468 17.2553C27.7585 17.2553 31.1727 13.3926 31.1727 8.62766C31.1727 3.86273 27.7585 0 23.5468 0C19.3351 0 15.9209 3.86273 15.9209 8.62766C15.9209 13.3926 19.3351 17.2553 23.5468 17.2553Z" fill="#3F3D56"/>
<path d="M49.8911 17.2553C54.1027 17.2553 57.517 13.3926 57.517 8.62766C57.517 3.86273 54.1027 0 49.8911 0C45.6794 0 42.2651 3.86273 42.2651 8.62766C42.2651 13.3926 45.6794 17.2553 49.8911 17.2553Z" fill="#3F3D56"/>
<path d="M76.2348 17.2553C80.4465 17.2553 83.8607 13.3926 83.8607 8.62766C83.8607 3.86273 80.4465 0 76.2348 0C72.0231 0 68.6089 3.86273 68.6089 8.62766C68.6089 13.3926 72.0231 17.2553 76.2348 17.2553Z" fill="#3F3D56"/>
<path d="M312.627 2.13843H293.914C293.543 2.1466 293.19 2.3154 292.93 2.6086C292.67 2.90179 292.525 3.29599 292.525 3.70655C292.525 4.11712 292.67 4.51132 292.93 4.80451C293.19 5.0977 293.543 5.26651 293.914 5.27468H312.627C312.998 5.26651 313.352 5.0977 313.611 4.80451C313.871 4.51132 314.016 4.11712 314.016 3.70655C314.016 3.29599 313.871 2.90179 313.611 2.6086C313.352 2.3154 312.998 2.1466 312.627 2.13843Z" fill="#3F3D56"/>
<path d="M312.627 8.02478H293.914C293.543 8.0329 293.19 8.20169 292.93 8.49489C292.67 8.78808 292.525 9.1823 292.525 9.59291C292.525 10.0035 292.67 10.3977 292.93 10.6909C293.19 10.9841 293.543 11.1529 293.914 11.161H312.627C312.998 11.1529 313.352 10.9841 313.611 10.6909C313.871 10.3977 314.017 10.0035 314.017 9.59291C314.017 9.1823 313.871 8.78808 313.611 8.49489C313.352 8.20169 312.998 8.0329 312.627 8.02478Z" fill="#3F3D56"/>
<path d="M312.627 13.9033H293.914C293.543 13.9114 293.19 14.0802 292.93 14.3734C292.67 14.6666 292.525 15.0608 292.525 15.4714C292.525 15.882 292.67 16.2763 292.93 16.5695C293.19 16.8627 293.543 17.0315 293.914 17.0396H312.627C312.998 17.0315 313.352 16.8627 313.611 16.5695C313.871 16.2763 314.017 15.882 314.017 15.4714C314.017 15.0608 313.871 14.6666 313.611 14.3734C313.352 14.0802 312.998 13.9114 312.627 13.9033Z" fill="#3F3D56"/>
<path d="M25.3488 85.9976C30.5558 85.9976 34.7768 81.3262 34.7768 75.5638C34.7768 69.8013 30.5558 65.1299 25.3488 65.1299C20.1419 65.1299 15.9209 69.8013 15.9209 75.5638C15.9209 81.3262 20.1419 85.9976 25.3488 85.9976Z" fill="#E6E7E8"/>
<path d="M265.433 98.668H18.7283C17.9838 98.668 17.2697 98.3407 16.7432 97.758C16.2167 97.1753 15.9209 96.385 15.9209 95.561C15.9209 94.737 16.2167 93.9467 16.7432 93.364C17.2697 92.7813 17.9838 92.454 18.7283 92.454H265.433C266.177 92.454 266.891 92.7813 267.418 93.364C267.944 93.9467 268.24 94.737 268.24 95.561C268.24 96.385 267.944 97.1753 267.418 97.758C266.891 98.3407 266.177 98.668 265.433 98.668Z" fill="#E6E7E8"/>
<path d="M200.73 110.945H18.7285C17.9839 110.945 17.2698 110.618 16.7432 110.035C16.2167 109.452 15.9209 108.662 15.9209 107.838C15.9209 107.014 16.2167 106.224 16.7432 105.641C17.2698 105.058 17.9839 104.731 18.7285 104.731H200.73C201.475 104.731 202.189 105.058 202.715 105.641C203.242 106.224 203.538 107.014 203.538 107.838C203.538 108.662 203.242 109.452 202.715 110.035C202.189 110.618 201.475 110.945 200.73 110.945Z" fill="#E6E7E8"/>
<path d="M25.3488 248.854C30.5558 248.854 34.7768 244.183 34.7768 238.42C34.7768 232.658 30.5558 227.986 25.3488 227.986C20.1419 227.986 15.9209 232.658 15.9209 238.42C15.9209 244.183 20.1419 248.854 25.3488 248.854Z" fill="#E6E7E8"/>
<path d="M265.433 261.524H18.7285C18.3594 261.525 17.9938 261.445 17.6527 261.289C17.3116 261.134 17.0015 260.905 16.7404 260.616C16.4792 260.328 16.272 259.985 16.1306 259.608C15.9893 259.23 15.9165 258.826 15.9165 258.418C15.9165 258.009 15.9893 257.605 16.1306 257.227C16.272 256.85 16.4792 256.507 16.7404 256.219C17.0015 255.93 17.3116 255.701 17.6527 255.546C17.9938 255.39 18.3594 255.31 18.7285 255.311H265.433C266.215 255.359 266.953 255.729 267.501 256.348C268.049 256.967 268.368 257.791 268.396 258.657C268.373 259.061 268.278 259.456 268.116 259.82C267.955 260.183 267.729 260.507 267.454 260.774C267.179 261.04 266.858 261.244 266.511 261.373C266.164 261.502 265.798 261.553 265.433 261.524Z" fill="#E6E7E8"/>
<path d="M200.73 273.802H18.7285C17.9839 273.802 17.2698 273.474 16.7432 272.892C16.2167 272.309 15.9209 271.519 15.9209 270.695C15.9209 269.871 16.2167 269.08 16.7432 268.498C17.2698 267.915 17.9839 267.588 18.7285 267.588H200.73C201.475 267.588 202.189 267.915 202.715 268.498C203.242 269.08 203.538 269.871 203.538 270.695C203.538 271.519 203.242 272.309 202.715 272.892C202.189 273.474 201.475 273.802 200.73 273.802Z" fill="#E6E7E8"/>
<path d="M25.3488 161.287C30.5558 161.287 34.7768 156.616 34.7768 150.853C34.7768 145.091 30.5558 140.419 25.3488 140.419C20.1419 140.419 15.9209 145.091 15.9209 150.853C15.9209 156.616 20.1419 161.287 25.3488 161.287Z" fill="#E6E7E8"/>
<path d="M265.433 173.958H18.7283C17.9838 173.958 17.2697 173.63 16.7432 173.048C16.2167 172.465 15.9209 171.675 15.9209 170.851C15.9209 170.027 16.2167 169.236 16.7432 168.654C17.2697 168.071 17.9838 167.744 18.7283 167.744H265.433C266.177 167.744 266.891 168.071 267.418 168.654C267.944 169.236 268.24 170.027 268.24 170.851C268.24 171.675 267.944 172.465 267.418 173.048C266.891 173.63 266.177 173.958 265.433 173.958Z" fill="#E6E7E8"/>
<path d="M231.077 186.235H18.7285C17.9839 186.235 17.2698 185.908 16.7432 185.325C16.2167 184.742 15.9209 183.952 15.9209 183.128C15.9209 182.304 16.2167 181.513 16.7432 180.931C17.2698 180.348 17.9839 180.021 18.7285 180.021H231.077C231.822 180.021 232.536 180.348 233.063 180.931C233.589 181.513 233.885 182.304 233.885 183.128C233.885 183.952 233.589 184.742 233.063 185.325C232.536 185.908 231.822 186.235 231.077 186.235Z" fill="#E6E7E8"/>
<path d="M216.665 198.512H18.7285C17.9839 198.512 17.2698 198.185 16.7432 197.602C16.2167 197.019 15.9209 196.229 15.9209 195.405C15.9209 194.581 16.2167 193.791 16.7432 193.208C17.2698 192.625 17.9839 192.298 18.7285 192.298H216.665C217.409 192.298 218.123 192.625 218.65 193.208C219.177 193.791 219.472 194.581 219.472 195.405C219.472 196.229 219.177 197.019 218.65 197.602C218.123 198.185 217.409 198.512 216.665 198.512Z" fill="#E6E7E8"/>
<path d="M220.76 335.873C259.32 335.873 290.579 301.278 290.579 258.604C290.579 215.93 259.32 181.336 220.76 181.336C182.2 181.336 150.941 215.93 150.941 258.604C150.941 301.278 182.2 335.873 220.76 335.873Z" fill="#6C63FF"/>
<path d="M220.665 285.563C226.173 285.563 230.639 280.621 230.639 274.525C230.639 268.429 226.173 263.487 220.665 263.487C215.156 263.487 210.69 268.429 210.69 274.525C210.69 280.621 215.156 285.563 220.665 285.563Z" fill="#3F3D56"/>
<path d="M220.664 279.62C223.207 279.62 225.268 277.339 225.268 274.525C225.268 271.711 223.207 269.43 220.664 269.43C218.122 269.43 216.061 271.711 216.061 274.525C216.061 277.339 218.122 279.62 220.664 279.62Z" fill="#6C63FF"/>
<path d="M239.179 299.097H202.341C198.694 299.092 195.197 297.487 192.617 294.632C190.038 291.778 188.587 287.908 188.583 283.871V265.179C188.587 261.142 190.038 257.272 192.617 254.417C195.197 251.563 198.694 249.957 202.341 249.953H239.179C242.827 249.957 246.324 251.563 248.903 254.418C251.482 257.272 252.933 261.142 252.937 265.179V283.871C252.933 287.908 251.482 291.778 248.903 294.632C246.324 297.486 242.827 299.092 239.179 299.097ZM202.341 251.547C199.076 251.551 195.945 252.989 193.635 255.544C191.326 258.1 190.027 261.565 190.024 265.179V283.871C190.027 287.485 191.326 290.95 193.636 293.505C195.945 296.061 199.076 297.498 202.341 297.502H239.179C242.445 297.498 245.576 296.061 247.885 293.505C250.194 290.95 251.493 287.485 251.497 283.871V265.179C251.493 261.565 250.194 258.1 247.885 255.544C245.576 252.989 242.445 251.551 239.179 251.547L202.341 251.547Z" fill="white"/>
<path d="M200.16 288.95H232.857C234.554 288.95 236.235 288.58 237.803 287.861C239.371 287.143 240.795 286.089 241.995 284.761C243.196 283.433 244.147 281.856 244.797 280.121C245.446 278.386 245.781 276.526 245.781 274.648V259.005C245.778 257.271 245.489 255.551 244.928 253.931C246.523 255.261 247.818 256.982 248.709 258.959C249.6 260.937 250.064 263.116 250.064 265.326V280.969C250.064 282.847 249.73 284.707 249.081 286.442C248.431 288.177 247.479 289.754 246.279 291.082C245.079 292.41 243.654 293.464 242.086 294.183C240.519 294.901 238.838 295.271 237.141 295.271H204.444C201.823 295.27 199.265 294.386 197.109 292.738C194.953 291.089 193.301 288.754 192.373 286.043C194.611 287.929 197.346 288.951 200.16 288.95Z" fill="#3F3D56"/>
<path d="M300.289 403.778L292.255 403.777L288.433 369.479L300.291 369.48L300.289 403.778Z" fill="#A0616A"/>
<path d="M300.573 413.054L275.865 413.053V412.707C275.865 409.884 276.879 407.177 278.682 405.181C280.486 403.186 282.932 402.064 285.482 402.064H285.483L289.996 398.275L298.416 402.065L300.573 402.065L300.573 413.054Z" fill="#2F2E41"/>
<path d="M357.14 403.778L365.174 403.777L368.997 369.479L357.138 369.48L357.14 403.778Z" fill="#A0616A"/>
<path d="M356.857 413.054L381.564 413.053V412.707C381.564 409.884 380.551 407.177 378.747 405.181C376.944 403.186 374.498 402.064 371.948 402.064H371.947L367.434 398.275L359.013 402.065L356.856 402.065L356.857 413.054Z" fill="#2F2E41"/>
<path d="M288.079 344.276C288.198 342.319 289.141 331.496 289.141 331.496L291.401 308.543L295.384 247.7L295.644 243.717L316.508 239.284L330.768 231.718L347.717 237.714L360.915 243.191C360.915 243.191 360.937 245.536 361.039 248.369C361.175 252.076 361.412 256.622 361.977 257.804C362.92 259.892 362.683 271.103 362.683 271.103C362.683 271.103 363.621 293.912 364.802 296.413C365.983 298.914 366.22 304.122 365.864 305.166C365.508 306.21 367.045 333.603 367.045 333.603C367.045 333.603 370.989 382.077 368.514 389.386C366.04 396.695 356.689 391.907 356.689 391.907C356.689 391.907 357.141 389.956 354.429 389.037C351.717 388.118 343.457 319.384 343.457 319.384C343.457 319.384 341.92 305.291 340.508 301.252C339.096 297.213 337.796 285.865 337.796 285.865C337.796 285.865 329.073 267.082 328.96 262.906C328.96 262.906 327.819 258.998 326.74 263.3C325.661 267.601 322.48 277.905 322.48 277.905L319.378 290.56L315.728 309.468L313.367 325.387C313.367 325.387 309.83 346.514 309.265 347.427C308.7 348.34 309.265 367.641 309.265 367.641C309.265 367.641 306.531 384.079 302.666 386.949C298.802 389.819 288.564 386.995 288.564 386.995C288.564 386.995 287.96 346.233 288.079 344.276Z" fill="#2F2E41"/>
<path d="M296.98 188.225L301.619 203.688L295.896 211.228L298.416 214.098L296.557 218.156L291.709 260.686L318.285 271.84L327.235 259.422L334.291 271.84L365.043 263.524L357.2 209.29V205.745L354.986 198.898V184.405L360.834 141.263L343.381 134.497L335.037 127.189L332.337 137.468L320.84 135.204L320.54 127.482L311.743 136.68L304.336 139.018L295.466 141.263L294.336 144.389L296.596 143.764L296.229 184.437L296.98 188.225Z" fill="#2F2E41"/>
<path d="M289.036 244.801L293.5 196.988L294.678 177.309L282.185 174.809C282.185 174.809 282.68 188.88 281.043 196.819C279.428 204.653 280.829 243.751 280.929 244.797C280.011 245.705 279.365 246.899 279.074 248.223C278.784 249.547 278.863 250.937 279.302 252.209C279.741 253.482 280.518 254.577 281.532 255.35C282.545 256.123 283.747 256.537 284.978 256.538C286.208 256.538 287.41 256.125 288.425 255.354C289.439 254.582 290.217 253.487 290.657 252.215C291.097 250.943 291.178 249.553 290.888 248.229C290.599 246.905 289.953 245.71 289.036 244.801Z" fill="#A0616A"/>
<path d="M276.85 206.895L280.325 207.689L292.246 210.422L292.907 210.572L294.313 204.382L295.946 202.456L299.054 184.436L299.217 183.499L303.912 172.394L307.161 139.018L295.081 141.419C295.019 141.488 294.963 141.563 294.906 141.638C293.172 143.814 291.935 146.84 289.912 149.885C283.33 159.795 278.28 183.874 278.477 197.066C278.483 197.279 278.285 197.51 278.048 197.748C276.928 198.887 276.197 200.42 275.979 202.086C275.761 203.752 276.069 205.451 276.85 206.895Z" fill="#2F2E41"/>
<path d="M366.698 244.801L362.235 196.988L361.057 177.309L373.55 174.809C373.55 174.809 373.055 188.88 374.691 196.819C376.306 204.653 374.905 243.751 374.806 244.797C375.723 245.705 376.37 246.899 376.66 248.223C376.951 249.547 376.872 250.937 376.433 252.209C375.994 253.482 375.216 254.577 374.203 255.35C373.189 256.123 371.988 256.537 370.757 256.538C369.526 256.538 368.324 256.125 367.31 255.354C366.296 254.582 365.517 253.487 365.077 252.215C364.637 250.943 364.557 249.553 364.846 248.229C365.136 246.905 365.781 245.71 366.698 244.801Z" fill="#A0616A"/>
<path d="M378.884 206.895L375.409 207.689L363.488 210.422L362.827 210.572L361.421 204.382L359.788 202.456L356.68 184.436L356.517 183.498L351.822 172.394L352.895 139.018L360.653 141.419C360.715 141.488 360.771 141.563 360.828 141.638C362.562 143.814 363.799 146.84 365.822 149.885C372.404 159.795 377.454 183.874 377.257 197.066C377.251 197.279 377.449 197.51 377.686 197.748C378.806 198.887 379.537 200.42 379.755 202.086C379.973 203.752 379.666 205.451 378.884 206.895Z" fill="#2F2E41"/>
<path d="M314.864 143.956L320.539 127.482L335.036 127.188L339.847 143.956L357.138 250.854C357.138 250.854 304.166 267.18 304.703 247.555C305.268 226.922 307.817 199.514 307.817 199.514L314.864 143.956Z" fill="#6C63FF"/>
<path d="M327.464 122.874C336.896 122.874 344.542 114.413 344.542 103.975C344.542 93.5365 336.896 85.0747 327.464 85.0747C318.032 85.0747 310.386 93.5365 310.386 103.975C310.386 114.413 318.032 122.874 327.464 122.874Z" fill="#A0616A"/>
<path d="M309.379 90.2639C312.16 86.9148 315.637 80.7844 326.171 78.2101C339.186 75.0292 345.337 88.0416 342.054 88.2549C351.652 91.4714 345.487 113.453 342.735 111.609C342.712 111.591 342.689 111.571 342.667 111.55C341.187 110.344 339.945 108.817 339.017 107.062C338.088 105.307 337.493 103.36 337.267 101.342L336.745 96.1402C336.67 100.372 332.761 100.932 328.768 99.3736C329.004 98.4457 329.455 97.6019 330.076 96.9256C330.696 96.2493 331.466 95.7638 332.308 95.5169C329.524 98.3097 325.988 100.012 322.244 100.363C322.441 99.3031 322.839 98.3021 323.414 97.4271C323.988 96.5521 324.726 95.8233 325.576 95.2897L325.418 95.1183C323.859 96.5737 322.068 97.6955 320.139 98.4267C317.937 99.1249 315.3 98.7472 313.792 96.8403C313.386 96.314 313.079 95.7031 312.89 95.0435C313.216 98.3952 311.184 102.221 309.606 101.564C308.294 101.282 307.529 92.4933 309.379 90.2639Z" fill="#2F2E41"/>
<path d="M431 413.051C431 413.176 430.978 413.3 430.936 413.415C430.893 413.53 430.829 413.635 430.75 413.723C430.67 413.811 430.575 413.881 430.471 413.929C430.367 413.976 430.256 414 430.143 414H228.257C228.03 414 227.812 413.9 227.651 413.722C227.49 413.544 227.4 413.303 227.4 413.051C227.4 412.8 227.49 412.558 227.651 412.381C227.812 412.203 228.03 412.103 228.257 412.103H430.143C430.256 412.102 430.367 412.127 430.471 412.174C430.575 412.222 430.67 412.292 430.75 412.38C430.829 412.468 430.893 412.573 430.936 412.688C430.978 412.803 431 412.927 431 413.051Z" fill="#CCCCCC"/>
<path d="M221.328 216.709C214.499 216.709 208.496 220.13 205.098 225.266C208.731 222.339 213.117 220.782 217.611 220.822C228.186 220.822 236.789 229.02 236.789 239.097V247.473H240.506V234.983C240.506 224.907 231.902 216.709 221.328 216.709Z" fill="#3F3D56"/>
<path d="M243.059 251.759H198.461V237.238C198.461 225.521 208.465 215.989 220.76 215.989C233.056 215.989 243.059 225.521 243.059 237.238V251.759ZM199.902 250.165H241.619V237.238C241.619 226.4 232.262 217.583 220.76 217.583C209.259 217.583 199.902 226.4 199.902 237.238V250.165Z" fill="white"/>
<path d="M232.182 246.215H209.338C208.311 246.214 207.326 245.762 206.599 244.957C205.872 244.153 205.463 243.063 205.462 241.925V236.146C205.462 228.089 212.325 221.533 220.76 221.533C229.195 221.533 236.058 228.089 236.058 236.146V241.925C236.057 243.063 235.648 244.153 234.921 244.957C234.195 245.762 233.21 246.214 232.182 246.215ZM220.76 223.128C213.119 223.128 206.903 228.967 206.903 236.146V241.925C206.904 242.64 207.16 243.325 207.617 243.831C208.074 244.336 208.693 244.62 209.338 244.621H232.182C232.828 244.62 233.447 244.336 233.903 243.831C234.36 243.325 234.617 242.64 234.617 241.925V236.146C234.617 228.967 228.401 223.128 220.76 223.128Z" fill="white"/>
</g>
<defs>
<clipPath id="clip0_145_608">
<rect width="431" height="414" fill="white"/>
</clipPath>
</defs>
</svg>
