<svg width="443" height="401" viewBox="0 0 443 401" fill="none" xmlns="http://www.w3.org/2000/svg">
<g clip-path="url(#clip0_145_655)">
<path d="M319.013 95.0438H316.524V34.8426C316.524 25.6018 312.36 16.7394 304.947 10.2052C297.535 3.67091 287.482 4.54503e-09 277 4.54503e-09H132.317C127.127 -7.38973e-05 121.987 0.901084 117.192 2.65202C112.397 4.40296 108.04 6.96938 104.37 10.2048C100.699 13.4401 97.7881 17.2811 95.8018 21.5084C93.8154 25.7357 92.7931 30.2665 92.793 34.8421V365.111C92.793 374.351 96.9571 383.214 104.369 389.748C111.781 396.282 121.834 399.953 132.317 399.953H276.998C287.48 399.953 297.533 396.282 304.946 389.748C312.358 383.214 316.522 374.351 316.522 365.111V137.896H319.011L319.013 95.0438Z" fill="#3F3D56"/>
<path d="M308.417 32.5089V367.443C308.415 374.45 305.258 381.169 299.639 386.123C294.02 391.078 286.399 393.863 278.451 393.866H130.8C122.849 393.867 115.224 391.083 109.6 386.128C103.977 381.173 100.817 374.452 100.814 367.443V32.5089C100.817 25.5002 103.977 18.7792 109.6 13.8243C115.223 8.86944 122.848 6.08638 130.799 6.08728H148.709C147.83 7.99387 147.495 10.0617 147.735 12.1091C147.974 14.1564 148.78 16.1206 150.082 17.8289C151.385 19.5372 153.143 20.9374 155.203 21.9064C157.262 22.8755 159.561 23.3836 161.895 23.3862H246.074C248.408 23.3836 250.707 22.8755 252.766 21.9064C254.826 20.9374 256.584 19.5372 257.887 17.8289C259.189 16.1206 259.995 14.1564 260.234 12.1091C260.474 10.0617 260.139 7.99387 259.259 6.08728H278.445C286.393 6.08847 294.014 8.87186 299.635 13.8255C305.255 18.7792 308.414 25.4976 308.417 32.5039V32.5089Z" fill="white"/>
<path d="M271.817 225.435H140.612C139.968 225.435 139.35 225.209 138.895 224.807C138.439 224.406 138.183 223.861 138.183 223.293V194.602C138.183 194.034 138.44 193.49 138.895 193.088C139.351 192.687 139.968 192.461 140.612 192.46H271.817C272.462 192.461 273.079 192.687 273.534 193.088C273.99 193.49 274.246 194.034 274.247 194.602V223.294C274.246 223.862 273.99 224.406 273.534 224.808C273.079 225.209 272.462 225.435 271.817 225.436V225.435ZM140.612 193.317C140.226 193.317 139.855 193.453 139.582 193.694C139.308 193.935 139.155 194.261 139.154 194.602V223.294C139.155 223.635 139.308 223.961 139.582 224.202C139.855 224.443 140.226 224.579 140.612 224.579H271.817C272.204 224.579 272.575 224.443 272.848 224.202C273.121 223.961 273.275 223.635 273.275 223.294V194.602C273.275 194.261 273.121 193.935 272.848 193.694C272.575 193.453 272.204 193.317 271.817 193.317H140.612Z" fill="#E6E6E6"/>
<path d="M181.189 202.793C180.738 202.793 180.305 202.951 179.986 203.232C179.668 203.513 179.488 203.895 179.488 204.292C179.488 204.69 179.668 205.071 179.986 205.353C180.305 205.634 180.738 205.792 181.189 205.792H261.37C261.82 205.807 262.26 205.664 262.591 205.393C262.922 205.123 263.117 204.748 263.135 204.351C263.152 203.953 262.989 203.566 262.683 203.274C262.376 202.982 261.951 202.81 261.5 202.795C261.475 202.794 261.45 202.793 261.425 202.793H181.189V202.793Z" fill="#E6E6E6"/>
<path d="M181.189 211.788C180.738 211.788 180.305 211.946 179.986 212.227C179.668 212.508 179.488 212.89 179.488 213.287C179.488 213.685 179.668 214.066 179.986 214.348C180.305 214.629 180.738 214.787 181.189 214.787H261.37C261.82 214.802 262.26 214.659 262.591 214.388C262.922 214.118 263.117 213.743 263.135 213.346C263.152 212.948 262.989 212.561 262.683 212.269C262.376 211.977 261.951 211.805 261.5 211.79C261.475 211.789 261.45 211.788 261.425 211.788H181.189V211.788Z" fill="#E6E6E6"/>
<path d="M271.817 273.258H140.612C139.968 273.257 139.35 273.031 138.895 272.63C138.439 272.228 138.183 271.684 138.183 271.116V242.425C138.183 241.857 138.44 241.312 138.895 240.911C139.351 240.509 139.968 240.283 140.612 240.283H271.817C272.462 240.283 273.079 240.509 273.534 240.911C273.99 241.312 274.246 241.857 274.247 242.425V271.116C274.246 271.684 273.99 272.228 273.534 272.63C273.079 273.031 272.461 273.257 271.817 273.258ZM140.612 241.139C140.226 241.14 139.855 241.275 139.582 241.516C139.308 241.757 139.155 242.084 139.154 242.425V271.116C139.155 271.457 139.308 271.784 139.582 272.025C139.855 272.266 140.226 272.401 140.612 272.402H271.817C272.204 272.401 272.575 272.266 272.848 272.025C273.121 271.784 273.275 271.457 273.275 271.116V242.425C273.275 242.084 273.121 241.757 272.848 241.516C272.575 241.275 272.204 241.14 271.817 241.139H140.612Z" fill="#E6E6E6"/>
<path d="M181.189 250.771C180.738 250.771 180.305 250.929 179.986 251.21C179.668 251.491 179.488 251.872 179.488 252.27C179.488 252.668 179.668 253.049 179.986 253.33C180.305 253.612 180.738 253.77 181.189 253.77H261.37C261.814 253.767 262.24 253.612 262.556 253.336C262.873 253.06 263.054 252.686 263.061 252.294C263.068 251.902 262.901 251.523 262.595 251.239C262.29 250.954 261.87 250.786 261.425 250.771H181.189V250.771Z" fill="#E6E6E6"/>
<path d="M181.189 259.768C180.738 259.768 180.305 259.926 179.986 260.207C179.668 260.488 179.488 260.87 179.488 261.267C179.488 261.665 179.668 262.046 179.986 262.328C180.305 262.609 180.738 262.767 181.189 262.767H261.37C261.814 262.765 262.24 262.609 262.556 262.333C262.873 262.058 263.054 261.684 263.061 261.292C263.068 260.9 262.901 260.521 262.595 260.236C262.29 259.951 261.87 259.784 261.425 259.769H181.189V259.768Z" fill="#E6E6E6"/>
<path d="M271.817 321.236H140.612C139.968 321.236 139.35 321.01 138.895 320.609C138.439 320.207 138.183 319.663 138.183 319.095V290.403C138.183 289.836 138.44 289.291 138.895 288.89C139.351 288.488 139.968 288.262 140.612 288.262H271.817C272.462 288.262 273.079 288.488 273.534 288.89C273.99 289.291 274.246 289.836 274.247 290.403V319.095C274.246 319.663 273.99 320.207 273.534 320.609C273.079 321.01 272.462 321.236 271.817 321.237V321.236ZM140.612 289.118C140.226 289.118 139.855 289.254 139.582 289.495C139.308 289.736 139.155 290.063 139.154 290.403V319.095C139.155 319.436 139.308 319.763 139.582 320.004C139.855 320.245 140.226 320.38 140.612 320.381H271.817C272.204 320.38 272.575 320.245 272.848 320.004C273.121 319.763 273.275 319.436 273.275 319.095V290.403C273.275 290.063 273.121 289.736 272.848 289.495C272.575 289.254 272.204 289.118 271.817 289.118H140.612Z" fill="#E6E6E6"/>
<path d="M181.189 298.751C180.738 298.751 180.305 298.909 179.986 299.19C179.668 299.472 179.488 299.853 179.488 300.251C179.488 300.648 179.668 301.03 179.986 301.311C180.305 301.592 180.738 301.75 181.189 301.75H261.37C261.593 301.758 261.816 301.726 262.025 301.658C262.235 301.59 262.427 301.486 262.591 301.352C262.755 301.218 262.887 301.057 262.98 300.878C263.074 300.699 263.126 300.506 263.135 300.309C263.143 300.112 263.108 299.916 263.03 299.731C262.953 299.546 262.835 299.377 262.683 299.232C262.531 299.088 262.348 298.971 262.145 298.889C261.942 298.807 261.723 298.76 261.5 298.753C261.475 298.752 261.45 298.752 261.425 298.752H181.189V298.751Z" fill="#E6E6E6"/>
<path d="M181.189 307.748C180.738 307.748 180.305 307.906 179.986 308.187C179.668 308.468 179.488 308.85 179.488 309.247C179.488 309.645 179.668 310.026 179.986 310.308C180.305 310.589 180.738 310.747 181.189 310.747H261.37C261.593 310.754 261.816 310.723 262.025 310.655C262.235 310.586 262.427 310.482 262.591 310.349C262.755 310.215 262.887 310.054 262.98 309.875C263.074 309.696 263.126 309.502 263.135 309.306C263.143 309.109 263.108 308.912 263.03 308.728C262.953 308.543 262.835 308.374 262.683 308.229C262.531 308.085 262.348 307.968 262.145 307.886C261.942 307.803 261.723 307.757 261.5 307.75C261.475 307.749 261.45 307.748 261.425 307.749H181.189V307.748Z" fill="#E6E6E6"/>
<path d="M441.842 401H1.15669C0.518341 401 0 400.737 0 400.412C0 400.087 0.518341 399.824 1.15669 399.824H441.843C442.482 399.824 443 400.087 443 400.412C443 400.737 442.48 401 441.842 401Z" fill="#E6E6E6"/>
<path d="M18.5578 378.06C20.572 378.684 22.7346 378.841 24.8373 378.514C26.9399 378.187 28.9117 377.389 30.5627 376.196C34.7675 373.085 36.0857 367.959 37.1581 363.213L40.3308 349.175L33.6887 353.207C28.9119 356.107 24.0279 359.099 20.7199 363.299C17.412 367.499 15.9686 373.232 18.6261 377.777" fill="#E6E6E6"/>
<path d="M19.5838 396.032C18.7476 390.662 17.8877 385.224 18.4744 379.797C18.9953 374.977 20.6633 370.269 24.0593 366.409C25.8618 364.365 28.0551 362.613 30.5405 361.232C31.1885 360.871 31.7853 361.777 31.1399 362.136C26.8385 364.532 23.5113 368.07 21.6381 372.24C19.5698 376.878 19.2378 381.933 19.5953 386.859C19.8111 389.838 20.2675 392.798 20.7277 395.754C20.764 395.888 20.7413 396.029 20.6643 396.148C20.5872 396.268 20.4616 396.357 20.3128 396.398C20.161 396.434 19.9992 396.416 19.8625 396.347C19.7258 396.279 19.6252 396.165 19.5826 396.032H19.5838Z" fill="#F2F2F2"/>
<path d="M25.6016 387.417C26.4654 388.574 27.6528 389.516 29.0494 390.152C30.446 390.787 32.0046 391.095 33.5752 391.045C37.6115 390.876 40.9769 388.393 44.0059 386.036L52.9659 379.063L47.0362 378.813C42.772 378.633 38.3974 378.465 34.333 379.625C30.2686 380.784 26.5253 383.574 25.7829 387.278" fill="#E6E6E6"/>
<path d="M17.2206 399.119C21.2422 392.841 25.9137 385.864 34.2551 383.634C36.5744 383.016 39.0063 382.794 41.42 382.981C42.1809 383.038 41.9906 384.073 41.2285 384.015C37.1826 383.719 33.1446 384.661 29.7943 386.682C26.5699 388.617 24.0599 391.306 21.9355 394.159C20.6339 395.903 19.4683 397.727 18.3026 399.546C17.9311 400.127 16.8459 399.707 17.2206 399.119Z" fill="#F2F2F2"/>
<path d="M156.981 217.768C162.617 217.768 167.185 213.74 167.185 208.772C167.185 203.803 162.617 199.775 156.981 199.775C151.345 199.775 146.776 203.803 146.776 208.772C146.776 213.74 151.345 217.768 156.981 217.768Z" fill="#6C63FF"/>
<path d="M152.095 207.091C151.978 207.091 151.883 207.763 151.883 208.59C151.883 209.418 151.978 210.09 152.095 210.09H162.13C162.247 210.104 162.344 209.444 162.346 208.616C162.411 208.1 162.34 207.579 162.137 207.092H152.095V207.091Z" fill="#E6E6E6"/>
<path d="M156.981 265.766C162.617 265.766 167.185 261.739 167.185 256.77C167.185 251.802 162.617 247.774 156.981 247.774C151.345 247.774 146.776 251.802 146.776 256.77C146.776 261.739 151.345 265.766 156.981 265.766Z" fill="#6C63FF"/>
<path d="M152.095 255.09C151.978 255.09 151.883 255.761 151.883 256.589C151.883 257.417 151.978 258.089 152.095 258.089H162.13C162.247 258.102 162.344 257.442 162.346 256.614C162.411 256.099 162.34 255.577 162.137 255.09H152.095V255.09Z" fill="#E6E6E6"/>
<path d="M156.981 313.745C162.617 313.745 167.185 309.717 167.185 304.749C167.185 299.781 162.617 295.753 156.981 295.753C151.345 295.753 146.776 299.781 146.776 304.749C146.776 309.717 151.345 313.745 156.981 313.745Z" fill="#6C63FF"/>
<path d="M152.095 303.069C151.978 303.069 151.883 303.74 151.883 304.568C151.883 305.396 151.978 306.067 152.095 306.067H162.13C162.247 306.081 162.344 305.421 162.346 304.593C162.411 304.078 162.34 303.556 162.137 303.069H152.095V303.069Z" fill="#E6E6E6"/>
<path d="M237.587 144.44C237.057 144.442 236.537 144.314 236.085 144.07C235.632 143.827 235.266 143.478 235.025 143.061C232.978 139.533 230.152 136.401 226.713 133.849C223.274 131.296 219.291 129.375 214.999 128.199C213.241 127.728 211.447 127.37 209.631 127.127L209.261 127.078L228.361 74.4346L228.684 74.4445C265.79 83.333 287.019 109.55 292.642 117.373C292.857 117.672 292.997 118.007 293.056 118.357C293.114 118.707 293.088 119.064 292.98 119.405C292.872 119.745 292.684 120.062 292.428 120.335C292.172 120.608 291.855 120.83 291.495 120.988L238.876 144.171C238.475 144.348 238.034 144.44 237.587 144.44Z" fill="#E6E6E6"/>
<path d="M352.13 256.61C352.329 255.867 352.71 255.172 353.247 254.573C353.783 253.974 354.462 253.486 355.236 253.144C356.01 252.801 356.859 252.612 357.724 252.591C358.59 252.569 359.45 252.715 360.244 253.018L374.469 239.347L377.127 248.697L363.211 260.246C362.545 261.389 361.427 262.277 360.068 262.742C358.709 263.207 357.203 263.216 355.837 262.768C354.471 262.32 353.339 261.445 352.656 260.31C351.972 259.175 351.785 257.858 352.13 256.609L352.13 256.61Z" fill="#FEB8B8"/>
<path d="M382.681 392.985H373.991L369.855 363.431H382.686L382.681 392.985Z" fill="#FEB8B8"/>
<path d="M384.898 390.483H367.78C364.887 390.484 362.113 391.497 360.067 393.3C358.022 395.103 356.872 397.549 356.872 400.099V400.412H384.896L384.898 390.483Z" fill="#2F2E41"/>
<path d="M432.593 385.395L424.467 388.114L408.705 361.777L420.697 357.765L432.593 385.395Z" fill="#FEB8B8"/>
<path d="M433.66 382.362L417.657 387.717C414.953 388.622 412.767 390.437 411.58 392.763C410.394 395.089 410.304 397.735 411.33 400.119L411.458 400.411L437.659 391.645L433.66 382.362Z" fill="#2F2E41"/>
<path d="M403.983 294.682L411.185 328.849C411.185 328.849 430.735 376.923 429.363 378.133C427.991 379.342 409.127 383.575 410.156 380.854C411.185 378.133 387.52 337.315 387.52 337.315L403.983 294.682Z" fill="#2F2E41"/>
<path d="M374.774 232.594C374.774 232.594 360.234 249.349 362.14 250.264C364.045 251.179 371.426 256.024 371.426 256.024L378.936 237.857L374.774 232.594Z" fill="#E4E4E4"/>
<path d="M370.714 249.506C370.714 249.506 368.313 265.228 369.342 268.554C370.371 271.88 369.685 366.215 368.999 367.727C368.313 369.239 366.254 374.379 367.284 376.797C368.315 379.216 382.375 385.263 384.433 383.147C386.491 381.03 401.583 303.93 401.583 303.93C401.583 303.93 422.848 257.367 418.046 252.832C413.245 248.297 370.714 249.506 370.714 249.506Z" fill="#2F2E41"/>
<path d="M401.57 148.459C410.852 148.459 418.376 141.825 418.376 133.643C418.376 125.461 410.852 118.828 401.57 118.828C392.288 118.828 384.764 125.461 384.764 133.643C384.764 141.825 392.288 148.459 401.57 148.459Z" fill="#FEB8B8"/>
<path d="M384.009 167.127C384.433 164.728 385.787 162.533 387.839 160.914L390.904 152.656H408.911L413.929 159.597C419.355 161.658 423.377 164.925 423.529 168.776C424.359 171.334 420.784 252.529 419.756 255.552C419.455 256.433 415.352 256.903 409.584 257.112C404.295 257.303 397.611 257.276 391.193 257.146C380.568 256.928 370.663 256.426 368.996 256.157C365.226 255.553 383.636 169.035 384.009 167.127Z" fill="#E4E4E4"/>
<path d="M399.93 274.798C400.659 274.387 401.278 273.84 401.742 273.196C402.205 272.552 402.503 271.826 402.615 271.069C402.726 270.312 402.647 269.543 402.385 268.816C402.122 268.088 401.682 267.421 401.095 266.86L411.034 250.508L400.144 251.385L392.377 266.778C391.372 267.709 390.79 268.933 390.741 270.218C390.692 271.502 391.179 272.758 392.11 273.747C393.042 274.736 394.352 275.389 395.794 275.583C397.235 275.776 398.707 275.497 399.93 274.797L399.93 274.798Z" fill="#FEB8B8"/>
<path d="M401.582 158.194C401.582 158.194 385.805 163.939 391.635 178.453C397.466 192.968 403.983 210.201 403.983 210.201C403.983 210.201 395.751 249.205 395.751 250.719C395.751 252.233 390.606 260.394 392.664 261.906C394.721 263.418 408.441 266.442 408.784 264.93C409.835 261.447 411.094 258.015 412.556 254.65C413.243 253.44 429.362 215.646 427.302 212.32C425.788 209.872 424.459 187.446 423.863 175.775C423.725 172.445 422.606 169.203 420.616 166.37C418.626 163.537 415.833 161.209 412.512 159.616C409.318 158.118 405.595 157.31 401.582 158.194Z" fill="#E4E4E4"/>
<path d="M408.038 140.265C406.762 139.746 405.283 139.638 403.903 139.316C398.966 138.161 395.658 133.863 396.714 129.974C396.908 129.48 396.996 128.958 396.973 128.435C396.789 127.283 395.258 126.539 393.79 126.275C392.323 126.011 390.761 126.05 389.358 125.625C388.343 125.308 387.444 124.756 386.755 124.027C386.065 123.297 385.612 122.418 385.441 121.48C385.224 119.659 385.751 117.829 386.927 116.319L387.457 117.494C388.244 116.993 388.846 116.299 389.19 115.499C389.766 115.56 390.315 115.746 390.79 116.04C391.264 116.333 391.649 116.726 391.909 117.183C392.76 117.57 392.883 115.983 393.824 115.749C394.233 115.709 394.645 115.788 394.998 115.974C396.892 116.654 399.092 116.072 401.126 115.695C404.656 115.045 408.3 115.042 411.832 115.686C414.17 116.115 416.485 116.863 418.159 118.193C419.442 119.303 420.45 120.637 421.118 122.109C422.913 125.588 424.099 129.352 423.506 133.068C422.968 136.185 421.303 139.066 418.76 141.284C417.404 142.486 412.983 146.681 410.558 145.966C407.508 145.066 411.628 141.726 408.038 140.265Z" fill="#2F2E41"/>
<path d="M205.536 154.452C208.356 154.452 210.643 152.436 210.643 149.95C210.643 147.463 208.356 145.448 205.536 145.448C202.716 145.448 200.429 147.463 200.429 149.95C200.429 152.436 202.716 154.452 205.536 154.452Z" fill="#3F3D56"/>
<path d="M171.264 144.374C170.797 144.374 170.337 144.272 169.924 144.079L117.609 119.749C117.262 119.588 116.956 119.365 116.71 119.096C116.464 118.826 116.284 118.515 116.18 118.181C116.076 117.848 116.05 117.499 116.105 117.157C116.159 116.814 116.293 116.485 116.497 116.19C123.485 106.316 132.335 97.5656 142.664 90.3174C160.73 77.6946 181.281 71.3617 203.74 71.4681C212.164 71.5009 220.547 72.5014 228.677 74.4442L228.999 74.5211L209.895 127.161L209.626 127.126C207.906 126.897 206.171 126.761 204.431 126.719C184.993 126.236 176.569 137.905 173.849 142.943C173.685 143.249 173.452 143.522 173.165 143.745C172.877 143.969 172.541 144.138 172.176 144.243C171.882 144.33 171.574 144.374 171.264 144.374Z" fill="#6C63FF"/>
<path d="M228.6 74.7159L215.092 127.93C213.32 127.455 211.511 127.094 209.679 126.849L228.593 74.7159H228.6Z" fill="#3F3D56"/>
</g>
<defs>
<clipPath id="clip0_145_655">
<rect width="443" height="401" fill="white"/>
</clipPath>
</defs>
</svg>
