<svg width="445" height="421" viewBox="0 0 445 421" fill="none" xmlns="http://www.w3.org/2000/svg">
<path d="M445 8.76123H178.131V160.401H445V8.76123Z" fill="#E6E6E6"/>
<path d="M437.369 21.7646H185.762V148.283H437.369V21.7646Z" fill="white"/>
<path d="M444.886 0H178.017V13.5762H444.886V0Z" fill="#6860F1"/>
<path d="M186.442 10.4994C187.603 10.4994 188.544 9.3728 188.544 7.98309C188.544 6.59338 187.603 5.4668 186.442 5.4668C185.282 5.4668 184.341 6.59338 184.341 7.98309C184.341 9.3728 185.282 10.4994 186.442 10.4994Z" fill="white"/>
<path d="M194.418 10.4994C195.579 10.4994 196.52 9.3728 196.52 7.98309C196.52 6.59338 195.579 5.4668 194.418 5.4668C193.258 5.4668 192.317 6.59338 192.317 7.98309C192.317 9.3728 193.258 10.4994 194.418 10.4994Z" fill="white"/>
<path d="M202.395 10.4994C203.555 10.4994 204.496 9.3728 204.496 7.98309C204.496 6.59338 203.555 5.4668 202.395 5.4668C201.234 5.4668 200.293 6.59338 200.293 7.98309C200.293 9.3728 201.234 10.4994 202.395 10.4994Z" fill="white"/>
<path d="M378.135 42.2371H336.303V127.812H378.135V42.2371Z" fill="#F2F2F2"/>
<path d="M329.373 42.2356H244.996V65.791H329.373V42.2356Z" fill="#6860F1"/>
<path d="M329.373 72.3506H244.996V97.695H329.373V72.3506Z" fill="#F2F2F2"/>
<path d="M329.373 104.255H244.996V127.81H329.373V104.255Z" fill="#F2F2F2"/>
<path d="M127.323 253.027C127.331 251.292 127.033 249.575 126.448 247.987C125.863 246.4 125.005 244.979 123.93 243.817C122.854 242.654 121.586 241.777 120.208 241.243C118.829 240.708 117.372 240.528 115.932 240.715C115.476 240.777 115.025 240.877 114.581 241.013L79.7779 205.291L81.8577 191.867L64.7039 185.21L59.532 206.723C58.9202 209.304 59.0199 212.054 59.8162 214.562C60.6126 217.071 62.0631 219.205 63.9527 220.648L106.766 253.074C106.766 253.478 106.784 253.881 106.819 254.282C106.975 256.007 107.434 257.672 108.165 259.17C108.897 260.668 109.884 261.963 111.063 262.972C112.242 263.981 113.585 264.68 115.006 265.024C116.426 265.368 117.891 265.348 119.304 264.966C119.715 264.858 120.12 264.718 120.516 264.548C122.497 263.69 124.212 262.126 125.429 260.066C126.646 258.006 127.307 255.55 127.323 253.027Z" fill="#9F616A"/>
<path d="M40.7993 294.456H85.6715C85.6715 296.001 131.918 297.254 131.918 297.254C132.644 297.909 133.305 298.66 133.89 299.493C135.646 302.001 136.606 305.173 136.601 308.446V310.685C136.599 314.395 135.368 317.953 133.177 320.576C130.987 323.199 128.016 324.674 124.918 324.675H40.7993C37.7016 324.672 34.7315 323.197 32.5411 320.574C30.3507 317.951 29.1189 314.394 29.1162 310.685V308.446C29.1205 304.738 30.3528 301.182 32.5428 298.56C34.7329 295.937 37.7021 294.461 40.7993 294.456Z" fill="#3F3D56"/>
<path d="M89.6099 324.119H77.4595V418.133H89.6099V324.119Z" fill="#3F3D56"/>
<path d="M124.192 419.303C124.192 421.063 105.78 419.984 83.0674 419.984C60.3549 419.984 41.9429 421.063 41.9429 419.303C41.9429 417.542 60.3549 403.583 83.0674 403.583C105.78 403.583 124.192 417.542 124.192 419.303Z" fill="#3F3D56"/>
<path d="M113.223 406.603L124.681 406.602L130.133 371.014L113.221 371.016L113.223 406.603Z" fill="#9F616A"/>
<path d="M110.3 419.903L147.248 419.902V419.342C147.248 417.081 146.876 414.841 146.153 412.752C145.43 410.663 144.371 408.764 143.036 407.165C141.7 405.566 140.115 404.298 138.37 403.432C136.626 402.567 134.756 402.122 132.867 402.122H132.866L110.3 402.123L110.3 419.903Z" fill="#2F2E41"/>
<path d="M130.361 384.534L153.205 323.193C155.112 318.023 155.323 312.182 153.796 306.834C152.268 301.486 149.114 297.024 144.963 294.335L95.4137 262.518L72.8035 260.215L51.9471 257.945L51.7967 258.25C51.6044 258.639 47.1201 267.914 50.1513 278.085C52.4506 285.799 58.4312 291.824 67.9272 295.994C90.0917 305.726 115.696 314.044 125.676 317.167C126.117 317.302 126.529 317.548 126.885 317.887C127.241 318.227 127.533 318.653 127.742 319.137C127.952 319.616 128.076 320.141 128.108 320.68C128.139 321.219 128.077 321.76 127.926 322.269L106.703 379.366C106.482 380.09 106.402 380.865 106.47 381.632C106.538 382.399 106.753 383.137 107.097 383.789C107.441 384.441 107.905 384.99 108.454 385.393C109.003 385.796 109.622 386.042 110.264 386.114L126.121 387.496C126.256 387.512 126.39 387.519 126.523 387.519C127.336 387.519 128.13 387.237 128.811 386.707C129.492 386.177 130.031 385.423 130.361 384.534Z" fill="#CBCBCB"/>
<path d="M105.746 406.603L117.204 406.602L122.656 371.014L105.744 371.016L105.746 406.603Z" fill="#9F616A"/>
<path d="M102.823 419.903L139.77 419.902V419.342C139.771 417.081 139.399 414.841 138.676 412.752C137.953 410.663 136.894 408.764 135.559 407.165C134.223 405.566 132.638 404.298 130.893 403.432C129.149 402.567 127.279 402.122 125.39 402.122H125.389L102.823 402.123L102.823 419.903Z" fill="#2F2E41"/>
<path d="M121.949 387.892L144.793 326.551C146.7 321.38 146.911 315.54 145.383 310.192C143.856 304.844 140.702 300.381 136.551 297.693L87.0017 265.876L64.3915 263.573L48.0557 261.876L48.058 261.608C47.8656 261.997 43.3813 271.272 46.4125 281.442C48.7118 289.156 50.0192 295.182 59.5152 299.352C81.6797 309.084 107.284 317.401 117.264 320.525C117.705 320.66 118.117 320.905 118.473 321.245C118.829 321.584 119.121 322.01 119.33 322.495C119.54 322.973 119.664 323.499 119.696 324.038C119.727 324.577 119.665 325.118 119.514 325.627L98.2912 382.723C98.0696 383.447 97.9898 384.223 98.058 384.99C98.1261 385.756 98.3405 386.494 98.6845 387.146C99.0285 387.798 99.493 388.347 100.042 388.75C100.591 389.153 101.21 389.4 101.852 389.471L117.709 390.854C117.844 390.869 117.978 390.877 118.111 390.877C118.924 390.876 119.718 390.594 120.399 390.065C121.08 389.535 121.619 388.78 121.949 387.892Z" fill="#CBCBCB"/>
<path d="M78.8994 262.996C79.9946 262.068 95.723 271.949 98.5269 264.115C85.4419 224.942 94.4589 208.027 86.4436 185.564C85.0319 181.689 82.9051 178.248 80.2233 175.499C77.5414 172.751 74.3741 170.766 70.9594 169.693L50.164 168.437L50.0563 168.499C45.3636 171.251 41.5367 175.741 39.1428 181.303C36.7488 186.865 35.9155 193.202 36.7662 199.376C36.8402 223.823 49.0554 242.469 44.7842 260.201C44.6051 260.942 44.5529 261.719 44.6306 262.485C44.7083 263.251 44.9144 263.991 45.2365 264.659C45.5488 265.305 45.9683 265.868 46.4692 266.312C46.97 266.757 47.5416 267.074 48.1486 267.243L75.6071 262.857C76.2485 263.04 76.9152 263.057 77.5625 262.907C78.2098 262.757 78.823 262.443 79.3612 261.987L78.8994 262.996Z" fill="#2F2E41"/>
<path d="M57.1038 159.136C69.782 159.136 80.0597 146.828 80.0597 131.647C80.0597 116.465 69.782 104.158 57.1038 104.158C44.4257 104.158 34.1479 116.465 34.1479 131.647C34.1479 146.828 44.4257 159.136 57.1038 159.136Z" fill="#9F616A"/>
<path d="M49.7921 156.878C51.0118 157.517 53.5095 145.879 52.3906 143.551C50.7267 140.09 50.8251 140.115 49.7205 137.824C48.6159 135.534 48.3688 132.399 49.7992 130.384C51.2296 128.369 54.5397 128.637 55.1925 131.163C54.7726 126.364 58.7366 122.507 62.6631 121.422C66.5896 120.338 70.7314 121.011 74.6795 120.047C79.2616 118.927 84.029 114.328 82.2008 108.294C81.8871 107.29 81.4174 106.365 80.8166 105.57C78.7043 102.726 75.7497 101.512 72.8608 100.338C66.851 97.895 60.6767 95.4217 54.3341 95.6914C43.9128 96.1344 34.062 104.761 30.5509 116.519C30.1138 117.986 29.7752 119.493 29.5382 121.024C27.3612 135.041 34.1588 148.868 45.1994 154.206L49.7921 156.878Z" fill="#2F2E41"/>
<path d="M170.177 201.082L172.81 219.8C172.839 220.009 172.82 220.223 172.754 220.419L152.101 282.213C152.02 282.458 151.87 282.662 151.678 282.791C151.486 282.919 151.263 282.965 151.046 282.921C150.829 282.877 150.631 282.745 150.486 282.547C150.34 282.349 150.256 282.097 150.247 281.834L149.372 257.002C149.366 256.837 149.39 256.672 149.442 256.519L168.337 200.84C168.416 200.608 168.556 200.413 168.736 200.284C168.915 200.156 169.125 200.101 169.333 200.128C169.542 200.156 169.737 200.264 169.889 200.436C170.041 200.608 170.142 200.835 170.177 201.082Z" fill="#3F3D56"/>
<path d="M168.715 202.519L171.216 218.6L152.889 274.988L150.509 256.849L168.715 202.519Z" fill="#6860F1"/>
<path d="M88.529 281.926C88.98 284.034 148.184 286.316 148.798 285.678C149.348 284.861 149.826 283.977 150.222 283.04C150.842 281.713 151.417 280.382 151.417 280.382L150.444 257.961L92.1236 250.498C92.1236 250.498 89.5434 269.208 88.7334 277.804C88.5505 279.167 88.482 280.547 88.529 281.926Z" fill="#3F3D56"/>
<path opacity="0.1" d="M142.813 260.333L142.818 279.65L117.023 277.454L118.165 258.235L142.813 260.333Z" fill="black"/>
<path opacity="0.1" d="M109.2 263.68L109.356 263.656L108.138 271.868L93.8076 270.648L94.2969 262.411L109.2 263.68Z" fill="black"/>
<path opacity="0.1" d="M88.529 281.926C88.98 284.034 148.184 286.316 148.798 285.678C149.348 284.861 149.826 283.977 150.222 283.04L88.7334 277.804C88.5505 279.167 88.482 280.547 88.529 281.926Z" fill="black"/>
<path d="M64.7561 248.444L114.697 259.605C114.822 259.979 114.963 260.346 115.119 260.703C115.798 262.232 116.737 263.573 117.877 264.638C119.016 265.703 120.331 266.47 121.734 266.888C123.142 267.312 124.61 267.371 126.04 267.061C127.469 266.751 128.827 266.079 130.021 265.089C132.186 263.31 133.7 260.607 134.253 257.534C134.806 254.461 134.357 251.25 132.997 248.561C131.637 245.872 129.47 243.908 126.94 243.071C124.409 242.233 121.707 242.587 119.387 244.059C118.983 244.319 118.595 244.612 118.225 244.936L74.8472 227.192L72.627 213.8L54.6343 215.226L56.4986 237.674C56.7249 240.294 57.6504 242.757 59.1379 244.697C60.6254 246.637 62.5955 247.951 64.7561 248.444Z" fill="#9F616A"/>
<path d="M54.0249 225.238L80.1696 214.949L74.0709 193.98C73.2611 191.195 71.6553 188.843 69.5375 187.339C67.4196 185.835 64.926 185.276 62.4973 185.761C60.0404 186.251 57.8109 187.778 56.2114 190.064C54.612 192.351 53.748 195.246 53.7755 198.229L54.0249 225.238Z" fill="#2F2E41"/>
<path d="M219.877 421H0.575594C0.422937 421 0.276532 420.927 0.168587 420.798C0.0606423 420.669 0 420.494 0 420.311C0 420.128 0.0606423 419.953 0.168587 419.823C0.276532 419.694 0.422937 419.622 0.575594 419.622H219.877C220.03 419.622 220.176 419.694 220.284 419.823C220.392 419.953 220.453 420.128 220.453 420.311C220.453 420.494 220.392 420.669 220.284 420.798C220.176 420.927 220.03 421 219.877 421Z" fill="#CBCBCB"/>
<path d="M305.184 399.284C315.702 405.802 320.379 419.995 320.379 419.995C320.379 419.995 308.002 423.619 297.484 417.101C286.966 410.582 282.289 396.39 282.289 396.39C282.289 396.39 294.666 392.765 305.184 399.284Z" fill="#F1F1F1"/>
<path d="M301.82 403.979C308.097 416.006 320.289 420.44 320.289 420.44C320.289 420.44 322.304 405.374 316.028 393.347C309.751 381.321 297.559 376.887 297.559 376.887C297.559 376.887 295.544 391.953 301.82 403.979Z" fill="#F1F1F1"/>
<path d="M339.601 420.727H273.983C273.83 420.727 273.684 420.654 273.576 420.525C273.468 420.396 273.407 420.22 273.407 420.037C273.407 419.855 273.468 419.679 273.576 419.55C273.684 419.421 273.83 419.348 273.983 419.348H339.601C339.753 419.348 339.9 419.421 340.008 419.55C340.116 419.679 340.176 419.855 340.176 420.037C340.176 420.22 340.116 420.396 340.008 420.525C339.9 420.654 339.753 420.727 339.601 420.727Z" fill="#CBCBCB"/>
</svg>
