<svg width="14" height="14" viewBox="0 0 14 14" fill="none" xmlns="http://www.w3.org/2000/svg">
<path d="M9.33301 4.66675C10.2613 4.66675 11.1515 5.0355 11.8079 5.69187C12.4643 6.34825 12.833 7.23849 12.833 8.16675V12.2501H10.4997V8.16675C10.4997 7.85733 10.3768 7.56058 10.158 7.34179C9.93917 7.123 9.64243 7.00008 9.33301 7.00008C9.02359 7.00008 8.72684 7.123 8.50805 7.34179C8.28926 7.56058 8.16634 7.85733 8.16634 8.16675V12.2501H5.83301V8.16675C5.83301 7.23849 6.20176 6.34825 6.85813 5.69187C7.51451 5.0355 8.40475 4.66675 9.33301 4.66675Z" fill="#101010"/>
<path d="M1.1665 5.25H3.49984V12.25H1.1665V5.25Z" fill="#101010"/>
<path d="M2.33317 3.50008C2.9775 3.50008 3.49984 2.97775 3.49984 2.33341C3.49984 1.68908 2.9775 1.16675 2.33317 1.16675C1.68884 1.16675 1.1665 1.68908 1.1665 2.33341C1.1665 2.97775 1.68884 3.50008 2.33317 3.50008Z" fill="#101010"/>
</svg>
