<svg width="14" height="12" viewBox="0 0 14 12" fill="none" xmlns="http://www.w3.org/2000/svg">
<path d="M13.4168 0.750006C12.8582 1.14403 12.2397 1.4454 11.5852 1.64251C11.2338 1.23855 10.7669 0.952243 10.2476 0.822297C9.72826 0.69235 9.18153 0.725037 8.68138 0.915938C8.18122 1.10684 7.75175 1.44674 7.45107 1.88967C7.15038 2.33261 6.99299 2.8572 7.00016 3.39251V3.97584C5.97503 4.00242 4.95924 3.77506 4.04325 3.31402C3.12726 2.85297 2.33951 2.17254 1.75016 1.33334C1.75016 1.33334 -0.58317 6.58334 4.66683 8.91667C3.46547 9.73215 2.03434 10.141 0.583496 10.0833C5.8335 13 12.2502 10.0833 12.2502 3.37501C12.2496 3.21252 12.234 3.05044 12.2035 2.89084C12.7988 2.30371 13.219 1.56242 13.4168 0.750006Z" fill="#101010"/>
</svg>
